M48
;Layer_Color=9474304
;FILE_FORMAT=2:5
INCH,LZ
;TYPE=PLATED
T7F00S00C0.09449
T8F00S00C0.09843
%
G90
G05
T07
G00X0025171Y0206484
M15
G01X0059029
M16
G00X0247871Y0206484
M15
G01X0281729
M16
G00X0470571Y0206484
M15
G01X0504429
M16
G00X0693271Y0206484
M15
G01X0727129
M16
G00X0915971Y0206484
M15
G01X0949829
M16
G00X0915971Y0430969
M15
G01X0949829
M16
G00X0693271Y0430969
M15
G01X0727129
M16
G00X0470571Y0430969
M15
G01X0504429
M16
G00X0247871Y0430969
M15
G01X0281729
M16
G00X0025171Y0430969
M15
G01X0059029
M16
G00X0915971Y0655453
M15
G01X0949829
M16
G00X0693271Y0655453
M15
G01X0727129
M16
G00X0470571Y0655453
M15
G01X0504429
M16
G00X0247871Y0655453
M15
G01X0281729
M16
G00X0025171Y0655453
M15
G01X0059029
M16
G00X0025171Y0879938
M15
G01X0059029
M16
G00X0247871Y0879938
M15
G01X0281729
M16
G00X0470571Y0879938
M15
G01X0504429
M16
G00X0693271Y0879938
M15
G01X0727129
M16
G00X0915971Y0879938
M15
G01X0949829
M16
T08
G00X0162468Y0011784
M15
G01X0195932
M16
G00X0385168Y0011784
M15
G01X0418632
M16
G00X0607868Y0011784
M15
G01X0641332
M16
G00X0830568Y0011784
M15
G01X0864032
M16
G00X1053268Y0011784
M15
G01X1086732
M16
G00X0162468Y0190984
M15
G01X0195932
M16
G00X0162468Y0206284
M15
G01X0195932
M16
G00X0162468Y0236269
M15
G01X0195932
M16
G00X0025368Y0190984
M15
G01X0058832
M16
G00X0248068Y0190984
M15
G01X0281532
M16
G00X0385168Y0190984
M15
G01X0418632
M16
G00X0385168Y0206284
M15
G01X0418632
M16
G00X0385168Y0236269
M15
G01X0418632
M16
G00X0470768Y0190984
M15
G01X0504232
M16
G00X0607868Y0190984
M15
G01X0641332
M16
G00X0607868Y0206284
M15
G01X0641332
M16
G00X0607868Y0236269
M15
G01X0641332
M16
G00X0693468Y0190984
M15
G01X0726932
M16
G00X0830568Y0190984
M15
G01X0864032
M16
G00X0830568Y0206284
M15
G01X0864032
M16
G00X0830568Y0236269
M15
G01X0864032
M16
G00X0916168Y0190984
M15
G01X0949632
M16
G00X1053268Y0190984
M15
G01X1086732
M16
G00X1053268Y0206284
M15
G01X1086732
M16
G00X1053268Y0236269
M15
G01X1086732
M16
G00X1053268Y0415469
M15
G01X1086732
M16
G00X1053268Y0430769
M15
G01X1086732
M16
G00X1053268Y0460753
M15
G01X1086732
M16
G00X0916168Y0415469
M15
G01X0949632
M16
G00X0830568Y0415469
M15
G01X0864032
M16
G00X0830568Y0430769
M15
G01X0864032
M16
G00X0830568Y0460753
M15
G01X0864032
M16
G00X0693468Y0415469
M15
G01X0726932
M16
G00X0607868Y0415469
M15
G01X0641332
M16
G00X0607868Y0430769
M15
G01X0641332
M16
G00X0607868Y0460753
M15
G01X0641332
M16
G00X0470768Y0415469
M15
G01X0504232
M16
G00X0385168Y0415469
M15
G01X0418632
M16
G00X0385168Y0430769
M15
G01X0418632
M16
G00X0385168Y0460753
M15
G01X0418632
M16
G00X0248068Y0415469
M15
G01X0281532
M16
G00X0162468Y0415469
M15
G01X0195932
M16
G00X0162468Y0430769
M15
G01X0195932
M16
G00X0162468Y0460753
M15
G01X0195932
M16
G00X0025368Y0415469
M15
G01X0058832
M16
G00X0025368Y0639953
M15
G01X0058832
M16
G00X0162468Y0639953
M15
G01X0195932
M16
G00X0248068Y0639953
M15
G01X0281532
M16
G00X0385168Y0639953
M15
G01X0418632
M16
G00X0470768Y0639953
M15
G01X0504232
M16
G00X0607868Y0639953
M15
G01X0641332
M16
G00X0693468Y0639953
M15
G01X0726932
M16
G00X0830568Y0639953
M15
G01X0864032
M16
G00X0916168Y0639953
M15
G01X0949632
M16
G00X1053268Y0639953
M15
G01X1086732
M16
G00X1053268Y0655253
M15
G01X1086732
M16
G00X1053268Y0685238
M15
G01X1086732
M16
G00X0830568Y0685238
M15
G01X0864032
M16
G00X0830568Y0655253
M15
G01X0864032
M16
G00X0607868Y0655253
M15
G01X0641332
M16
G00X0607868Y0685238
M15
G01X0641332
M16
G00X0385168Y0685238
M15
G01X0418632
M16
G00X0385168Y0655253
M15
G01X0418632
M16
G00X0162468Y0655253
M15
G01X0195932
M16
G00X0162468Y0685238
M15
G01X0195932
M16
G00X0162468Y0864438
M15
G01X0195932
M16
G00X0162468Y0879738
M15
G01X0195932
M16
G00X0025368Y0864438
M15
G01X0058832
M16
G00X0248068Y0864438
M15
G01X0281532
M16
G00X0385168Y0864438
M15
G01X0418632
M16
G00X0385168Y0879738
M15
G01X0418632
M16
G00X0470768Y0864438
M15
G01X0504232
M16
G00X0607868Y0864438
M15
G01X0641332
M16
G00X0607868Y0879738
M15
G01X0641332
M16
G00X0693468Y0864438
M15
G01X0726932
M16
G00X0830568Y0864438
M15
G01X0864032
M16
G00X0830568Y0879738
M15
G01X0864032
M16
G00X0916168Y0864438
M15
G01X0949632
M16
G00X1053268Y0864438
M15
G01X1086732
M16
G00X1053268Y0879738
M15
G01X1086732
M16
M30
