M48
;Layer_Color=9474304
;FILE_FORMAT=2:5
INCH,LZ
;TYPE=PLATED
T1F00S00C0.01968
T2F00S00C0.02756
T3F00S00C0.03150
T4F00S00C0.03937
T5F00S00C0.04724
T6F00S00C0.08071
%
T01
X00716Y0009884
X00815Y0009784
X013Y0009584
X01281Y0016084
X0135
X01412Y0016284
X014Y0009584
X01507
X0146593Y0021228
X02172Y0010284
X02943Y0009884
X03042Y0009784
X03527Y0009584
X03508Y0016084
X03577
X03639Y0016284
X03627Y0009584
X03734
X0369293Y0021228
X04399Y0010284
X0517Y0009884
X05269Y0009784
X05754Y0009584
X05735Y0016084
X05804
X05866Y0016284
X05854Y0009584
X05961
X0591993Y0021228
X06626Y0010284
X07397Y0009884
X07496Y0009784
X07981Y0009584
X07962Y0016084
X08031
X08093Y0016284
X08081Y0009584
X08188
X0814693Y0021228
X08853Y0010284
X09624Y0009884
X09723Y0009784
X10208Y0009584
X10189Y0016084
X10258
X1032Y0016284
X10308Y0009584
X10415
X1037393Y0021228
X1108Y0010284
Y0027946
Y0047408
X11031Y0081784
X1097525Y0077304
X10425Y0071984
X1046134Y0086355
X102417Y0087898
Y0097084
X1022051Y0076892
X1021071Y0059932
X1026694
X10321
X1045Y0054884
X1056072Y0048364
X10151Y0040284
X10119Y0028284
X10044Y0031984
X09984Y0027884
X09939Y0042684
X09792Y0042484
X09882Y0061584
X09868Y0068984
X09806Y0076984
X09868Y0085484
X10339Y0151784
X1108Y0148229
Y0174584
X0896042Y0170482
X08853Y0174584
Y0148229
X0896042Y0147185
X09341Y0110984
X09556Y0076984
X09677
X09639Y0038484
X09561
X09488
X09469Y0028284
X09547
X09624
X09379Y0040784
Y0047484
X0911Y0047684
X09034
X09072Y0051684
X09148
X08996
X08853Y0047408
Y0027946
X08804Y0081784
X0874825Y0077304
X08198Y0071984
X0823434Y0086355
X08223Y0054884
X0833372Y0048364
X08094Y0059932
X0803994
X0798371
X0799351Y0076892
X080147Y0087898
Y0097084
X07641Y0085484
X07579Y0076984
X0745
X07329
X07334Y0038484
X07261
X07242Y0028284
X0732
X07397
X07412Y0038484
X07565Y0042484
X07712Y0042684
X07757Y0027884
X07817Y0031984
X07892Y0028284
X07924Y0040284
X07655Y0061584
X07641Y0068984
X07152Y0047484
Y0040784
X06883Y0047684
X06807
X06845Y0051684
X06921
X06769
X06626Y0047408
Y0027946
X06577Y0081784
X06626Y0148229
X0673342Y0147185
Y0170482
X06626Y0174584
X07114Y0110984
X08112Y0151784
X05885
X057877Y0097084
Y0087898
X0576651Y0076892
X0575671Y0059932
X0581294
X05867
X05996Y0054884
X0610672Y0048364
X05971Y0071984
X0600734Y0086355
X05414Y0085484
X05352Y0076984
X05223
X05102
X05107Y0038484
X05034
X05015Y0028284
X05093
X0517
X05185Y0038484
X05338Y0042484
X05485Y0042684
X0553Y0027884
X0559Y0031984
X05665Y0028284
X05697Y0040284
X05428Y0061584
X05414Y0068984
X0652125Y0077304
X04925Y0047484
Y0040784
X04656Y0047684
X0458
X04618Y0051684
X04694
X04542
X04399Y0047408
Y0027946
X0435Y0081784
X0429425Y0077304
X03744Y0071984
X0378034Y0086355
X035607Y0087898
Y0097084
X0353951Y0076892
X0352971Y0059932
X0358594
X0364
X03769Y0054884
X0387972Y0048364
X0347Y0040284
X03658Y0151784
X04399Y0148229
X0450642Y0147185
Y0170482
X04399Y0174584
X04887Y0110984
X03187Y0085484
X03125Y0076984
X02996
X02875
X0288Y0038484
X02807
X02788Y0028284
X02866
X02943
X02958Y0038484
X03111Y0042484
X03258Y0042684
X03303Y0027884
X03363Y0031984
X03438Y0028284
X03201Y0061584
X03187Y0068984
X02698Y0047484
Y0040784
X02429Y0047684
X02353
X02391Y0051684
X02467
X02315
X02172Y0047408
Y0027946
X02123Y0081784
X0206725Y0077304
X02172Y0148229
X0227941Y0147185
Y0170482
X02172Y0174584
X0266Y0110984
X0155334Y0086355
X01517Y0071984
X01542Y0054884
X0165272Y0048364
X01413Y0059932
X0135894
X0130271
X0131251Y0076892
X013337Y0087898
Y0097084
X0096Y0085484
X00898Y0076984
X00769
X00648
X00653Y0038484
X0058
X00561Y0028284
X00639
X00716
X00731Y0038484
X00884Y0042484
X01031Y0042684
X01076Y0027884
X01136Y0031984
X01211Y0028284
X01243Y0040284
X00974Y0061584
X0096Y0068984
X00471Y0047484
Y0040784
X00433Y0110984
X01431Y0151784
X0005241Y0147185
Y0170482
X00088Y0051684
X00164
X0024
X00202Y0047684
X00126
X0005241Y0185084
X0010415Y0194984
X0015049Y0205371
X00126Y0272169
X00202
X0024Y0276169
X00164
X00088
X00471Y0271969
Y0265269
X0058Y0262969
X00653
X00731
X00716Y0252769
X00639
X00561
X00716Y0234369
X00815Y0234269
X008923Y0219084
X0068468
X0109992
X0130753
X013Y0234069
X01281Y0240569
X0135
X01412Y0240769
X014Y0234069
X01507
X0146593Y0245713
X0151515Y0219084
X01312Y0192684
X01211Y0252769
X01136Y0256469
X01076Y0252369
X01031Y0267169
X00884Y0266969
X00974Y0286069
X0096Y0293469
X00898Y0301469
X00769
X00648
X0096Y0309969
X013337Y0312382
Y0321569
X0131251Y0301377
X0130271Y0284416
X0135894
X01413
X01542Y0279369
X0165272Y0272848
X01517Y0296469
X0155334Y031084
X01243Y0264769
X02172Y0271892
X02353Y0272169
X02429
X02467Y0276169
X02391
X02315
X02172Y0252431
Y0234769
X02058Y0205584
X02116Y0195084
X02172Y0184584
X0227941Y0185084
X0233115Y0194984
X0237749Y0205371
X0291168Y0219084
X02943Y0234369
X03042Y0234269
X031193Y0219084
X0332692
X03303Y0252369
X03363Y0256469
X03438Y0252769
X03258Y0267169
X03111Y0266969
X02958Y0262969
X0288
X02807
X02788Y0252769
X02866
X02943
X02698Y0265269
Y0271969
X02875Y0301469
X02996
X03125
X03187Y0293469
X03201Y0286069
X03187Y0309969
X02123Y0306269
X0206725Y0301788
X0353951Y0301377
X035607Y0312382
Y0321569
X0378034Y031084
X03744Y0296469
X03769Y0279369
X0387972Y0272848
X0364Y0284416
X0358594
X0352971
X0347Y0264769
X03508Y0240569
X03577
X03639Y0240769
X03627Y0234069
X03527
X0353453Y0219084
X0374215
X03734Y0234069
X0369293Y0245713
X03539Y0192684
X04343Y0195084
X04399Y0184584
X0450642Y0185084
X0455815Y0194984
X0460449Y0205371
X04285Y0205584
X04399Y0234769
Y0252431
Y0271892
X0458Y0272169
X04656
X04694Y0276169
X04618
X04542
X04925Y0271969
Y0265269
X0435Y0306269
X0429425Y0301788
X05102Y0301469
X05223
X05352
X05414Y0293469
X05428Y0286069
X05485Y0267169
X05338Y0266969
X05185Y0262969
X05107
X05034
X05015Y0252769
X05093
X0517
Y0234369
X05269Y0234269
X053463Y0219084
X0513868
X0555392
X0576153
X05754Y0234069
X05735Y0240569
X05804
X05866Y0240769
X05854Y0234069
X05961
X0591993Y0245713
X0596915Y0219084
X05766Y0192684
X05665Y0252769
X0559Y0256469
X0553Y0252369
X05697Y0264769
X0575671Y0284416
X0581294
X05867
X05996Y0279369
X0610672Y0272848
X05971Y0296469
X0600734Y031084
X057877Y0312382
Y0321569
X0576651Y0301377
X05414Y0309969
X0652125Y0301788
X06512Y0205584
X0657Y0195084
X06626Y0184584
X0673342Y0185084
X0678515Y0194984
X0683149Y0205371
X06626Y0234769
Y0252431
Y0271892
X06807Y0272169
X06883
X06921Y0276169
X06845
X06769
X07152Y0271969
Y0265269
X07261Y0262969
X07334
X07412
X07397Y0252769
X0732
X07242
X07397Y0234369
X07496Y0234269
X075733Y0219084
X0736568
X0778092
X0798853
X07981Y0234069
X07962Y0240569
X08031
X08093Y0240769
X08081Y0234069
X07892Y0252769
X07817Y0256469
X07757Y0252369
X07712Y0267169
X07565Y0266969
X07655Y0286069
X07641Y0293469
X07579Y0301469
X0745
X07329
X07641Y0309969
X080147Y0312382
Y0321569
X0799351Y0301377
X0798371Y0284416
X0803994
X08094
X07924Y0264769
X07993Y0192684
X06577Y0306269
X0823434Y031084
X08198Y0296469
X08223Y0279369
X0833372Y0272848
X0814693Y0245713
X08188Y0234069
X0819615Y0219084
X08739Y0205584
X08797Y0195084
X08853Y0184584
X0896042Y0185084
X0901215Y0194984
X0905849Y0205371
X08853Y0234769
Y0252431
Y0271892
X09034Y0272169
X0911
X09148Y0276169
X09072
X08996
X09379Y0271969
Y0265269
X09488Y0262969
X09561
X09639
X09624Y0252769
X09547
X09469
X09624Y0234369
X0959268Y0219084
X09556Y0301469
X09677
X08804Y0306269
X0874825Y0301788
X09806Y0301469
X09868Y0293469
X09882Y0286069
X09939Y0267169
X09792Y0266969
X09984Y0252369
X10044Y0256469
X10119Y0252769
X10151Y0264769
X1021071Y0284416
X1026694
X10321
X1045Y0279369
X1056072Y0272848
X10425Y0296469
X1046134Y031084
X102417Y0312382
Y0321569
X1022051Y0301377
X09868Y0309969
X09723Y0234269
X098003Y0219084
X1000792
X1021553
X10208Y0234069
X10189Y0240569
X10258
X1032Y0240769
X10308Y0234069
X10415
X1037393Y0245713
X1042315Y0219084
X1022Y0192684
X11024Y0195084
X1108Y0184584
X10966Y0205584
X1108Y0234769
Y0252431
Y0271892
X11031Y0306269
X1097525Y0301788
X1108Y0372713
Y0399069
Y0409069
X11024Y0419569
X10966Y0430069
X1108Y0459253
Y0476915
X1037393Y0470197
X1032Y0465253
X10258Y0465053
X10189
X10208Y0458553
X10308
X10415
X1042315Y0443569
X1021553
X1000792
X098003
X09723Y0458753
X09984Y0476853
X10044Y0480953
X10119Y0477253
X10151Y0489253
X1022Y0417169
X10339Y0376269
X09341Y0335469
X0896042Y0371669
X08853Y0372713
Y0399069
Y0409069
X0896042Y0409569
Y0394966
X0901215Y0419469
X0905849Y0429855
X08739Y0430069
X08797Y0419569
X08853Y0459253
Y0476915
X09469Y0477253
X09547
X09624
X09639Y0487453
X09561
X09488
X09379Y0489753
X09624Y0458853
X0959268Y0443569
X0819615
X08188Y0458553
X0814693Y0470197
X08093Y0465253
X08031Y0465053
X07962
X07981Y0458553
X08081
X0798853Y0443569
X0778092
X075733
X0736568
X07397Y0458853
X07496Y0458753
X07397Y0477253
X0732
X07242
X07261Y0487453
X07334
X07412
X07152Y0489753
X06626Y0476915
Y0459253
X0657Y0419569
X06626Y0409069
Y0399069
X0673342Y0394966
Y0409569
X0678515Y0419469
X0683149Y0429855
X0673342Y0371669
X06626Y0372713
X07114Y0335469
X08112Y0376269
X07993Y0417169
X07892Y0477253
X07817Y0480953
X07757Y0476853
X07924Y0489253
X06512Y0430069
X0596915Y0443569
X05961Y0458553
X05854
X05866Y0465253
X05804Y0465053
X05735
X05754Y0458553
X0576153Y0443569
X0555392
X053463
X0513868
X0517Y0458853
X05269Y0458753
X0517Y0477253
X05093
X05015
X05034Y0487453
X05107
X05185
X0553Y0476853
X0559Y0480953
X05665Y0477253
X05697Y0489253
X0591993Y0470197
X05766Y0417169
X05885Y0376269
X04887Y0335469
X0450642Y0371669
X04399Y0372713
Y0399069
Y0409069
X0450642Y0409569
Y0394966
X0455815Y0419469
X0460449Y0429855
X04285Y0430069
X04343Y0419569
X04399Y0459253
Y0476915
X04925Y0489753
X0369293Y0470197
X03639Y0465253
X03577Y0465053
X03508
X03527Y0458553
X03627
X03734
X0374215Y0443569
X0353453
X03539Y0417169
X03658Y0376269
X0347Y0489253
X03438Y0477253
X03363Y0480953
X03303Y0476853
X0332692Y0443569
X031193
X0291168
X02943Y0458853
X03042Y0458753
X02943Y0477253
X02866
X02788
X02807Y0487453
X0288
X02958
X02698Y0489753
X02172Y0476915
Y0459253
X02058Y0430069
X02116Y0419569
X02172Y0409069
Y0399069
X0227941Y0394966
Y0409569
X0233115Y0419469
X0237749Y0429855
X0227941Y0371669
X02172Y0372713
X0266Y0335469
X01431Y0376269
X01312Y0417169
X0130753Y0443569
X013Y0458553
X01281Y0465053
X0135
X01412Y0465253
X014Y0458553
X01507
X0146593Y0470197
X0151515Y0443569
X0109992
X008923
X0068468
X00716Y0458853
X00815Y0458753
X00716Y0477253
X00639
X00561
X0058Y0487453
X00653
X00731
X00471Y0489753
X01076Y0476853
X01136Y0480953
X01211Y0477253
X01243Y0489253
X00433Y0335469
X0005241Y0371669
Y0394966
Y0409569
X0010415Y0419469
X0015049Y0429855
X00126Y0496653
X00202
X0024Y0500653
X00164
X00088
X0005241Y0596154
Y0619451
Y0634053
X0010415Y0643953
X00433Y0559953
X00648Y0525953
X00769
X00898
X0096Y0517953
X00974Y0510553
X01031Y0491653
X00884Y0491453
X00471Y0496453
X0096Y0534453
X013337Y0536867
Y0546053
X0131251Y0525861
X0130271Y05089
X0135894
X01413
X01542Y0503853
X0165272Y0497332
X01517Y0520953
X0155334Y0535324
X01431Y0600753
X01312Y0641653
X02116Y0644053
X02172Y0633553
Y0623553
X0227941Y0619451
Y0634053
X0233115Y0643953
X0227941Y0596154
X02172Y0597198
X02123Y0530753
X0206725Y0526272
X02172Y0496377
X02353Y0496653
X02429
X02467Y0500653
X02391
X02315
X02698Y0496453
X03111Y0491453
X03258Y0491653
X03201Y0510553
X03187Y0517953
X03125Y0525953
X02996
X02875
X03187Y0534453
X0266Y0559953
X035607Y0546053
Y0536867
X0353951Y0525861
X0352971Y05089
X0358594
X0364
X03769Y0503853
X0387972Y0497332
X03744Y0520953
X0378034Y0535324
X0429425Y0526272
X0435Y0530753
X04399Y0496377
X0458Y0496653
X04656
X04694Y0500653
X04618
X04542
X04925Y0496453
X04887Y0559953
X0450642Y0596154
X04399Y0597198
Y0623553
Y0633553
X0450642Y0634053
Y0619451
X0455815Y0643953
X04343Y0644053
X03539Y0641653
X03658Y0600753
X05102Y0525953
X05223
X05352
X05414Y0517953
X05428Y0510553
X05485Y0491653
X05338Y0491453
X05414Y0534453
X057877Y0536867
Y0546053
X0576651Y0525861
X0575671Y05089
X0581294
X05867
X05996Y0503853
X0610672Y0497332
X05971Y0520953
X0600734Y0535324
X0652125Y0526272
X05885Y0600753
X05766Y0641653
X0657Y0644053
X06626Y0633553
Y0623553
X0673342Y0619451
Y0634053
X0678515Y0643953
X0673342Y0596154
X06626Y0597198
X06577Y0530753
X06626Y0496377
X06807Y0496653
X06883
X06921Y0500653
X06845
X06769
X07152Y0496453
X07565Y0491453
X07712Y0491653
X07655Y0510553
X07641Y0517953
X07579Y0525953
X0745
X07329
X07641Y0534453
X080147Y0536867
Y0546053
X0799351Y0525861
X0798371Y05089
X0803994
X08094
X08112Y0600753
X07993Y0641653
X07114Y0559953
X0823434Y0535324
X08198Y0520953
X08223Y0503853
X0833372Y0497332
X08853Y0496377
X09034Y0496653
X0911
X09148Y0500653
X09072
X08996
X09379Y0496453
X09556Y0525953
X09677
X09341Y0559953
X0896042Y0596154
X08853Y0597198
Y0623553
Y0633553
X0896042Y0634053
Y0619451
X0901215Y0643953
X08797Y0644053
X08804Y0530753
X0874825Y0526272
X09806Y0525953
X09868Y0517953
X09882Y0510553
X09939Y0491653
X09792Y0491453
X09868Y0534453
X102417Y0536867
Y0546053
X1022051Y0525861
X1021071Y05089
X1026694
X10321
X1045Y0503853
X1056072Y0497332
X10425Y0520953
X1046134Y0535324
X1097525Y0526272
X11031Y0530753
X1108Y0496377
Y0597198
Y0623553
Y0633553
X11024Y0644053
X1022Y0641653
X10339Y0600753
X1042315Y0668053
X10415Y0683038
X10308
X1032Y0689738
X10258Y0689538
X10189
X10208Y0683038
X1021553Y0668053
X1000792
X098003
X09723Y0683238
X09792Y0715938
X09939Y0716138
X09984Y0701338
X10044Y0705438
X10119Y0701738
X10151Y0713738
X1021071Y0733385
X1026694
X10321
X1045Y0728338
X1056072Y0721817
X10425Y0745438
X1046134Y0759808
X102417Y0761351
Y0770538
X1022051Y0750345
X09806Y0750438
X09868Y0742438
X09882Y0735038
X09868Y0758938
X1037393Y0694682
X1108Y0701399
Y0683738
Y0720861
X11031Y0755238
X1097525Y0750757
X10966Y0654553
X0959268Y0668053
X09624Y0683338
Y0701738
X09547
X09469
X09488Y0711938
X09561
X09639
X09379Y0714238
Y0720938
X0911Y0721138
X09034
X09072Y0725138
X09148
X08996
X08853Y0720861
Y0701399
Y0683738
X08739Y0654553
X0905849Y0654339
X0819615Y0668053
X08188Y0683038
X0814693Y0694682
X08223Y0728338
X0833372Y0721817
X08198Y0745438
X0823434Y0759808
X0874825Y0750757
X08804Y0755238
X09556Y0750438
X09677
X09341Y0784438
X080147Y0770538
Y0761351
X0799351Y0750345
X0798371Y0733385
X0803994
X08094
X07924Y0713738
X07892Y0701738
X07817Y0705438
X07757Y0701338
X07712Y0716138
X07565Y0715938
X07412Y0711938
X07334
X07261
X07242Y0701738
X0732
X07397
Y0683338
X07496Y0683238
X075733Y0668053
X0736568
X0778092
X0798853
X07981Y0683038
X07962Y0689538
X08031
X08093Y0689738
X08081Y0683038
X07655Y0735038
X07641Y0742438
X07579Y0750438
X0745
X07329
X07641Y0758938
X07114Y0784438
X07152Y0720938
Y0714238
X06883Y0721138
X06807
X06845Y0725138
X06921
X06769
X06626Y0720861
Y0701399
Y0683738
X0683149Y0654339
X06577Y0755238
X0652125Y0750757
X05971Y0745438
X0600734Y0759808
X057877Y0761351
Y0770538
X0576651Y0750345
X0575671Y0733385
X0581294
X05867
X05996Y0728338
X0610672Y0721817
X0591993Y0694682
X05866Y0689738
X05804Y0689538
X05735
X05754Y0683038
X05854
X05961
X0596915Y0668053
X0576153
X0555392
X053463
X0513868
X0517Y0683338
X05269Y0683238
X0517Y0701738
X05093
X05015
X05034Y0711938
X05107
X05185
X05338Y0715938
X05485Y0716138
X0553Y0701338
X0559Y0705438
X05665Y0701738
X05697Y0713738
X05428Y0735038
X05414Y0742438
X05352Y0750438
X05223
X05102
X05414Y0758938
X06512Y0654553
X0460449Y0654339
X04285Y0654553
X04399Y0683738
Y0701399
Y0720861
X0458Y0721138
X04656
X04694Y0725138
X04618
X04542
X04925Y0720938
Y0714238
X04887Y0784438
X0435Y0755238
X0429425Y0750757
X03744Y0745438
X0378034Y0759808
X035607Y0761351
Y0770538
X0353951Y0750345
X0352971Y0733385
X0358594
X0364
X03769Y0728338
X0387972Y0721817
X0369293Y0694682
X03639Y0689738
X03577Y0689538
X03508
X03527Y0683038
X03627
X03734
X0374215Y0668053
X0353453
X0347Y0713738
X03438Y0701738
X03363Y0705438
X03303Y0701338
X03258Y0716138
X03111Y0715938
X02958Y0711938
X0288
X02807
X02788Y0701738
X02866
X02943
Y0683338
X03042Y0683238
X031193Y0668053
X0291168
X0332692
X03201Y0735038
X03187Y0742438
X03125Y0750438
X02996
X02875
X03187Y0758938
X0266Y0784438
X02698Y0720938
Y0714238
X02429Y0721138
X02353
X02391Y0725138
X02467
X02315
X02172Y0720861
Y0701399
Y0683738
X02058Y0654553
X0237749Y0654339
X02123Y0755238
X0206725Y0750757
X01517Y0745438
X0155334Y0759808
X013337Y0761351
Y0770538
X0131251Y0750345
X0130271Y0733385
X0135894
X01413
X01542Y0728338
X0165272Y0721817
X0146593Y0694682
X01412Y0689738
X0135Y0689538
X01281
X013Y0683038
X014
X01507
X0151515Y0668053
X0130753
X0109992
X008923
X0068468
X00716Y0683338
X00815Y0683238
X00716Y0701738
X00639
X00561
X0058Y0711938
X00653
X00731
X00884Y0715938
X01031Y0716138
X01076Y0701338
X01136Y0705438
X01211Y0701738
X01243Y0713738
X00974Y0735038
X0096Y0742438
X00898Y0750438
X00769
X00648
X0096Y0758938
X00433Y0784438
X00471Y0720938
Y0714238
X00202Y0721138
X00126
X00164Y0725138
X0024
X00088
X0015049Y0654339
X0005241Y0820638
Y0843935
Y0858538
X0010415Y0868438
X0015049Y0878824
X0068468Y0892538
X008923
X0109992
X0130753
X0151515
X01312Y0866138
X01431Y0825238
X02172Y0821682
X0227941Y0820638
Y0843935
Y0858538
X02172Y0858038
Y0848038
X02116Y0868538
X02058Y0879038
X0237749Y0878824
X0233115Y0868438
X0291168Y0892538
X031193
X0332692
X0353453
X0374215
X03539Y0866138
X03658Y0825238
X04399Y0821682
X0450642Y0820638
Y0843935
Y0858538
X04399Y0858038
Y0848038
X04343Y0868538
X04285Y0879038
X0460449Y0878824
X0455815Y0868438
X0513868Y0892538
X053463
X0555392
X0576153
X0596915
X05766Y0866138
X05885Y0825238
X06512Y0879038
X0657Y0868538
X06626Y0858038
Y0848038
X0673342Y0843935
Y0858538
X0678515Y0868438
X0683149Y0878824
X0736568Y0892538
X075733
X0778092
X0798853
X07993Y0866138
X08112Y0825238
X0673342Y0820638
X06626Y0821682
X08853
X0896042Y0820638
Y0843935
Y0858538
X08853Y0858038
Y0848038
X08797Y0868538
X08739Y0879038
X0905849Y0878824
X0901215Y0868438
X0959268Y0892538
X0819615
X098003
X1000792
X1021553
X1042315
X1022Y0866138
X10339Y0825238
X1108Y0821682
Y0848038
Y0858038
X11024Y0868538
X10966Y0879038
T02
X11061Y0059284
X10881Y0096384
X08654
X08834Y0059284
X06607
X06427Y0096384
X042
X0438Y0059284
X02153
X01973Y0096384
X02153Y0283769
X01973Y0320869
X042
X0438Y0283769
X06427Y0320869
X06607Y0283769
X08834
X08654Y0320869
X10881
X11061Y0283769
X02153Y0508253
X01973Y0545353
X042
X0438Y0508253
X06427Y0545353
X06607Y0508253
X08834
X08654Y0545353
X10881
X11061Y0508253
Y0732738
X10881Y0769838
X08654
X08834Y0732738
X06607
X06427Y0769838
X042
X0438Y0732738
X02153
X01973Y0769838
T03
X099695Y0101834
Y0116334
X101145
X078875
X077425
Y0101834
X056605Y0116334
X055155
Y0101834
X034335Y0116334
X032885
Y0101834
X012065Y0116334
X010615
Y0101834
Y0326319
X032885
X055155
X077425
X099695
Y0340819
X101145
X078875
X077425
X056605
X055155
X034335
X032885
X012065
X010615
Y0550803
Y0565303
X012065
X032885
X034335
X032885Y0550803
X055155
Y0565303
X056605
X077425
X078875
X077425Y0550803
X099695
Y0565303
X101145
Y0789788
X099695
Y0775288
X078875Y0789788
X077425
Y0775288
X056605Y0789788
X055155
Y0775288
X034335Y0789788
X032885
Y0775288
X012065Y0789788
X010615
Y0775288
T04
X10591Y0127484
X10691
X10791
X09558Y0126484
X09358
X09158
X08564Y0127484
X08464
X08364
X07331Y0126484
X07131
X06931
X06337Y0127484
X06237
X06137
X05104Y0126484
X04904
X04704
X0411Y0127484
X0401
X0391
X02877Y0126484
X02677
X02477
X01883Y0127484
X01783
X01683
X0065Y0126484
X0045
X0025
X01416Y0196184
Y0206184
X03643
Y0196184
X0587
Y0206184
X08097
Y0196184
X10324
Y0206184
X10591Y0351969
X10691
X10791
X10324Y0420669
Y0430669
X09558Y0350969
X09358
X09158
X08564Y0351969
X08464
X08364
X08097Y0420669
Y0430669
X07331Y0350969
X07131
X06931
X06337Y0351969
X06237
X06137
X0587Y0420669
Y0430669
X05104Y0350969
X04904
X04704
X0411Y0351969
X0401
X0391
X03643Y0420669
Y0430669
X02877Y0350969
X02677
X02477
X01883Y0351969
X01783
X01683
X01416Y0420669
Y0430669
X0065Y0350969
X0045
X0025
Y0575453
X0045
X0065
X01683Y0576453
X01783
X01416Y0645153
X01883Y0576453
X02477Y0575453
X02677
X02877
X0391Y0576453
X0401
X0411
X04704Y0575453
X04904
X03643Y0645153
X05104Y0575453
X06137Y0576453
X06237
X06337
X0587Y0645153
X06931Y0575453
X07131
X07331
X08097Y0645153
X08364Y0576453
X08464
X08564
X09158Y0575453
X09358
X09558
X10591Y0576453
X10691
X10791
X10324Y0645153
Y0655153
X10591Y0800938
X10691
X10791
X09558Y0799938
X09358
X09158
X08564Y0800938
X08464
X08364
X07331Y0799938
X07131
X06931
X08097Y0655153
X0587
X06137Y0800938
X06237
X06337
X05104Y0799938
X04904
X04704
X0411Y0800938
X0401
X0391
X03643Y0655153
X02877Y0799938
X02677
X02477
X01883Y0800938
X01783
X01683
X0065Y0799938
X0045
X01416Y0655153
X0025Y0799938
X01416Y0869638
Y0879638
X03643
Y0869638
X0587
Y0879638
X08097
Y0869638
X10324
Y0879638
T05
X1059379Y0160766
X1079379
X1099378
X09424Y0160584
X09224
X09024
X0876678Y0160766
X0856678
X0836679
X07197Y0160584
X06997
X06797
X0653978Y0160766
X0633978
X0613978
X0497Y0160584
X0477
X0457
X0431278Y0160766
X0411278
X0391278
X02743Y0160584
X02543
X02343
X0208578Y0160766
X0188578
X0168578
X00516Y0160584
X00316
X00116
X1059379Y038525
X1079379
X1099378
X09424Y0385069
X09224
X09024
X0876678Y038525
X0856678
X0836679
X07197Y0385069
X06997
X06797
X0653978Y038525
X0633978
X0613978
X0497Y0385069
X0477
X0457
X0431278Y038525
X0411278
X0391278
X02743Y0385069
X02543
X02343
X0208578Y038525
X0188578
X0168578
X00516Y0385069
X00316
X00116
Y0609553
X00316
X00516
X0168578Y0609735
X0188578
X0208578
X02343Y0609553
X02543
X02743
X0391278Y0609735
X0411278
X0431278
X0457Y0609553
X0477
X0497
X0613978Y0609735
X0633978
X0653978
X06797Y0609553
X06997
X07197
X0836679Y0609735
X0856678
X0876678
X09024Y0609553
X09224
X09424
X1059379Y0609735
X1079379
X1099378
X00316Y0834038
X00116
X00516
X0168578Y0834219
X0188578
X0208578
X02343Y0834038
X02543
X02743
X0391278Y0834219
X0411278
X0431278
X0457Y0834038
X0477
X0497
X0613978Y0834219
X0633978
X0653978
X06797Y0834038
X06997
X07197
X0836679Y0834219
X0856678
X0876678
X09024Y0834038
X09224
X09424
X1059379Y0834219
X1079379
X1099378
T06
X0019666Y-0010186
X-0009848Y0019685
X1094012Y-0010186
X1123327Y0178108
Y0713478
X-000993Y0858634
X0302843Y0907773
X0812713
M30
