G04*
G04 #@! TF.GenerationSoftware,Altium Limited,Altium Designer,22.11.1 (43)*
G04*
G04 Layer_Color=8421504*
%FSTAX26Y26*%
%MOIN*%
G70*
G04*
G04 #@! TF.SameCoordinates,AA770BCE-04E6-4DAC-A3A7-18814E9E4FF3*
G04*
G04*
G04 #@! TF.FilePolarity,Positive*
G04*
G01*
G75*
%ADD11C,0.042047*%
%ADD12R,0.050000X0.051181*%
%ADD13O,0.078740X0.023622*%
%ADD14O,0.028346X0.070079*%
%ADD15R,0.028346X0.070079*%
%ADD16R,0.074803X0.028346*%
%ADD17O,0.074803X0.028346*%
%ADD18R,0.039370X0.037402*%
%ADD19R,0.037402X0.039370*%
%ADD20R,0.045276X0.070866*%
%ADD21R,0.057087X0.039370*%
%ADD22R,0.036000X0.036000*%
%ADD23R,0.050000X0.036000*%
%ADD24R,0.039370X0.057087*%
%ADD25R,0.078740X0.078740*%
%ADD26R,0.102362X0.062992*%
%ADD27R,0.047244X0.094488*%
%ADD28R,0.062992X0.102362*%
%ADD29R,0.110236X0.055118*%
%ADD30R,0.055118X0.118110*%
G04:AMPARAMS|DCode=32|XSize=51.181mil|YSize=23.622mil|CornerRadius=5.906mil|HoleSize=0mil|Usage=FLASHONLY|Rotation=270.000|XOffset=0mil|YOffset=0mil|HoleType=Round|Shape=RoundedRectangle|*
%AMROUNDEDRECTD32*
21,1,0.051181,0.011811,0,0,270.0*
21,1,0.039370,0.023622,0,0,270.0*
1,1,0.011811,-0.005906,-0.019685*
1,1,0.011811,-0.005906,0.019685*
1,1,0.011811,0.005906,0.019685*
1,1,0.011811,0.005906,-0.019685*
%
%ADD32ROUNDEDRECTD32*%
D11*
X03225279Y09077735D02*
D03*
X07930279Y09077735D02*
D03*
X-00098483Y003937D02*
D03*
X00393512Y-00101861D02*
D03*
X11233266Y01977928D02*
D03*
X11233266Y06937928D02*
D03*
X-00099298Y08389491D02*
D03*
X10743266Y-00101861D02*
D03*
D12*
X01123001Y01924844D02*
D03*
Y01834844D02*
D03*
X03350001Y01924844D02*
D03*
Y01834844D02*
D03*
X05577002Y01924844D02*
D03*
Y01834844D02*
D03*
X07804002Y01924844D02*
D03*
Y01834844D02*
D03*
X10031003Y01924844D02*
D03*
Y01834844D02*
D03*
X01123001Y04169688D02*
D03*
Y04079688D02*
D03*
X03350001Y04169688D02*
D03*
Y04079688D02*
D03*
X05577002Y04169688D02*
D03*
Y04079688D02*
D03*
X07804002Y04169688D02*
D03*
Y04079688D02*
D03*
X10031003Y04169688D02*
D03*
Y04079688D02*
D03*
X01123001Y06414532D02*
D03*
Y06324532D02*
D03*
X03350001Y06414532D02*
D03*
Y06324532D02*
D03*
X05577002Y06414532D02*
D03*
Y06324532D02*
D03*
X07804002Y06414532D02*
D03*
Y06324532D02*
D03*
X10031003Y06414532D02*
D03*
Y06324532D02*
D03*
X01123001Y08659376D02*
D03*
Y08569376D02*
D03*
X03350001Y08659376D02*
D03*
Y08569376D02*
D03*
X05577002Y08659376D02*
D03*
Y08569376D02*
D03*
X07804002Y08659376D02*
D03*
Y08569376D02*
D03*
X10031003Y08659376D02*
D03*
Y08569376D02*
D03*
D13*
X01733764Y00863844D02*
D03*
Y00813844D02*
D03*
Y00763844D02*
D03*
Y00713844D02*
D03*
Y00663844D02*
D03*
Y00613844D02*
D03*
Y00563844D02*
D03*
X01954237D02*
D03*
Y00613844D02*
D03*
Y00663844D02*
D03*
Y00713844D02*
D03*
Y00763844D02*
D03*
Y00813844D02*
D03*
Y00863844D02*
D03*
X03960765D02*
D03*
Y00813844D02*
D03*
Y00763844D02*
D03*
Y00713844D02*
D03*
Y00663844D02*
D03*
Y00613844D02*
D03*
Y00563844D02*
D03*
X04181237D02*
D03*
Y00613844D02*
D03*
Y00663844D02*
D03*
Y00713844D02*
D03*
Y00763844D02*
D03*
Y00813844D02*
D03*
Y00863844D02*
D03*
X06187765D02*
D03*
Y00813844D02*
D03*
Y00763844D02*
D03*
Y00713844D02*
D03*
Y00663844D02*
D03*
Y00613844D02*
D03*
Y00563844D02*
D03*
X06408238D02*
D03*
Y00613844D02*
D03*
Y00663844D02*
D03*
Y00713844D02*
D03*
Y00763844D02*
D03*
Y00813844D02*
D03*
Y00863844D02*
D03*
X08414766D02*
D03*
Y00813844D02*
D03*
Y00763844D02*
D03*
Y00713844D02*
D03*
Y00663844D02*
D03*
Y00613844D02*
D03*
Y00563844D02*
D03*
X08635238D02*
D03*
Y00613844D02*
D03*
Y00663844D02*
D03*
Y00713844D02*
D03*
Y00763844D02*
D03*
Y00813844D02*
D03*
Y00863844D02*
D03*
X10641766D02*
D03*
Y00813844D02*
D03*
Y00763844D02*
D03*
Y00713844D02*
D03*
Y00663844D02*
D03*
Y00613844D02*
D03*
Y00563844D02*
D03*
X10862239D02*
D03*
Y00613844D02*
D03*
Y00663844D02*
D03*
Y00713844D02*
D03*
Y00763844D02*
D03*
Y00813844D02*
D03*
Y00863844D02*
D03*
X01733764Y03108688D02*
D03*
Y03058688D02*
D03*
Y03008688D02*
D03*
Y02958688D02*
D03*
Y02908688D02*
D03*
Y02858688D02*
D03*
Y02808688D02*
D03*
X01954237D02*
D03*
Y02858688D02*
D03*
Y02908688D02*
D03*
Y02958688D02*
D03*
Y03008688D02*
D03*
Y03058688D02*
D03*
Y03108688D02*
D03*
X03960765D02*
D03*
Y03058688D02*
D03*
Y03008688D02*
D03*
Y02958688D02*
D03*
Y02908688D02*
D03*
Y02858688D02*
D03*
Y02808688D02*
D03*
X04181237D02*
D03*
Y02858688D02*
D03*
Y02908688D02*
D03*
Y02958688D02*
D03*
Y03008688D02*
D03*
Y03058688D02*
D03*
Y03108688D02*
D03*
X06187765D02*
D03*
Y03058688D02*
D03*
Y03008688D02*
D03*
Y02958688D02*
D03*
Y02908688D02*
D03*
Y02858688D02*
D03*
Y02808688D02*
D03*
X06408238D02*
D03*
Y02858688D02*
D03*
Y02908688D02*
D03*
Y02958688D02*
D03*
Y03008688D02*
D03*
Y03058688D02*
D03*
Y03108688D02*
D03*
X08414766D02*
D03*
Y03058688D02*
D03*
Y03008688D02*
D03*
Y02958688D02*
D03*
Y02908688D02*
D03*
Y02858688D02*
D03*
Y02808688D02*
D03*
X08635238D02*
D03*
Y02858688D02*
D03*
Y02908688D02*
D03*
Y02958688D02*
D03*
Y03008688D02*
D03*
Y03058688D02*
D03*
Y03108688D02*
D03*
X10641766D02*
D03*
Y03058688D02*
D03*
Y03008688D02*
D03*
Y02958688D02*
D03*
Y02908688D02*
D03*
Y02858688D02*
D03*
Y02808688D02*
D03*
X10862239D02*
D03*
Y02858688D02*
D03*
Y02908688D02*
D03*
Y02958688D02*
D03*
Y03008688D02*
D03*
Y03058688D02*
D03*
Y03108688D02*
D03*
X01733764Y05353532D02*
D03*
Y05303532D02*
D03*
Y05253532D02*
D03*
Y05203532D02*
D03*
Y05153532D02*
D03*
Y05103532D02*
D03*
Y05053532D02*
D03*
X01954237D02*
D03*
Y05103532D02*
D03*
Y05153532D02*
D03*
Y05203532D02*
D03*
Y05253532D02*
D03*
Y05303532D02*
D03*
Y05353532D02*
D03*
X03960765D02*
D03*
Y05303532D02*
D03*
Y05253532D02*
D03*
Y05203532D02*
D03*
Y05153532D02*
D03*
Y05103532D02*
D03*
Y05053532D02*
D03*
X04181237D02*
D03*
Y05103532D02*
D03*
Y05153532D02*
D03*
Y05203532D02*
D03*
Y05253532D02*
D03*
Y05303532D02*
D03*
Y05353532D02*
D03*
X06187765D02*
D03*
Y05303532D02*
D03*
Y05253532D02*
D03*
Y05203532D02*
D03*
Y05153532D02*
D03*
Y05103532D02*
D03*
Y05053532D02*
D03*
X06408238D02*
D03*
Y05103532D02*
D03*
Y05153532D02*
D03*
Y05203532D02*
D03*
Y05253532D02*
D03*
Y05303532D02*
D03*
Y05353532D02*
D03*
X08414766D02*
D03*
Y05303532D02*
D03*
Y05253532D02*
D03*
Y05203532D02*
D03*
Y05153532D02*
D03*
Y05103532D02*
D03*
Y05053532D02*
D03*
X08635238D02*
D03*
Y05103532D02*
D03*
Y05153532D02*
D03*
Y05203532D02*
D03*
Y05253532D02*
D03*
Y05303532D02*
D03*
Y05353532D02*
D03*
X10641766D02*
D03*
Y05303532D02*
D03*
Y05253532D02*
D03*
Y05203532D02*
D03*
Y05153532D02*
D03*
Y05103532D02*
D03*
Y05053532D02*
D03*
X10862239D02*
D03*
Y05103532D02*
D03*
Y05153532D02*
D03*
Y05203532D02*
D03*
Y05253532D02*
D03*
Y05303532D02*
D03*
Y05353532D02*
D03*
X01733764Y07598376D02*
D03*
Y07548376D02*
D03*
Y07498376D02*
D03*
Y07448376D02*
D03*
Y07398376D02*
D03*
Y07348376D02*
D03*
Y07298376D02*
D03*
X01954237D02*
D03*
Y07348376D02*
D03*
Y07398376D02*
D03*
Y07448376D02*
D03*
Y07498376D02*
D03*
Y07548376D02*
D03*
Y07598376D02*
D03*
X03960765D02*
D03*
Y07548376D02*
D03*
Y07498376D02*
D03*
Y07448376D02*
D03*
Y07398376D02*
D03*
Y07348376D02*
D03*
Y07298376D02*
D03*
X04181237D02*
D03*
Y07348376D02*
D03*
Y07398376D02*
D03*
Y07448376D02*
D03*
Y07498376D02*
D03*
Y07548376D02*
D03*
Y07598376D02*
D03*
X06187765D02*
D03*
Y07548376D02*
D03*
Y07498376D02*
D03*
Y07448376D02*
D03*
Y07398376D02*
D03*
Y07348376D02*
D03*
Y07298376D02*
D03*
X06408238D02*
D03*
Y07348376D02*
D03*
Y07398376D02*
D03*
Y07448376D02*
D03*
Y07498376D02*
D03*
Y07548376D02*
D03*
Y07598376D02*
D03*
X08414766D02*
D03*
Y07548376D02*
D03*
Y07498376D02*
D03*
Y07448376D02*
D03*
Y07398376D02*
D03*
Y07348376D02*
D03*
Y07298376D02*
D03*
X08635238D02*
D03*
Y07348376D02*
D03*
Y07398376D02*
D03*
Y07448376D02*
D03*
Y07498376D02*
D03*
Y07548376D02*
D03*
Y07598376D02*
D03*
X10641766D02*
D03*
Y07548376D02*
D03*
Y07498376D02*
D03*
Y07448376D02*
D03*
Y07398376D02*
D03*
Y07348376D02*
D03*
Y07298376D02*
D03*
X10862239D02*
D03*
Y07348376D02*
D03*
Y07398376D02*
D03*
Y07448376D02*
D03*
Y07498376D02*
D03*
Y07548376D02*
D03*
Y07598376D02*
D03*
D14*
X00083827Y00591978D02*
D03*
X00133827D02*
D03*
X00183827D02*
D03*
X00233827D02*
D03*
Y00399978D02*
D03*
X00183827D02*
D03*
X00133827D02*
D03*
X02310828Y00591978D02*
D03*
X02360828D02*
D03*
X02410828D02*
D03*
X02460828D02*
D03*
Y00399978D02*
D03*
X02410828D02*
D03*
X02360828D02*
D03*
X04537828Y00591978D02*
D03*
X04587828D02*
D03*
X04637828D02*
D03*
X04687828D02*
D03*
Y00399978D02*
D03*
X04637828D02*
D03*
X04587828D02*
D03*
X06764829Y00591978D02*
D03*
X06814829D02*
D03*
X06864829D02*
D03*
X06914829D02*
D03*
Y00399978D02*
D03*
X06864829D02*
D03*
X06814829D02*
D03*
X08991829Y00591978D02*
D03*
X09041829D02*
D03*
X09091829D02*
D03*
X09141829D02*
D03*
Y00399978D02*
D03*
X09091829D02*
D03*
X09041829D02*
D03*
X00083827Y02836822D02*
D03*
X00133827D02*
D03*
X00183827D02*
D03*
X00233827D02*
D03*
Y02644822D02*
D03*
X00183827D02*
D03*
X00133827D02*
D03*
X02310828Y02836822D02*
D03*
X02360828D02*
D03*
X02410828D02*
D03*
X02460828D02*
D03*
Y02644822D02*
D03*
X02410828D02*
D03*
X02360828D02*
D03*
X04537828Y02836822D02*
D03*
X04587828D02*
D03*
X04637828D02*
D03*
X04687828D02*
D03*
Y02644822D02*
D03*
X04637828D02*
D03*
X04587828D02*
D03*
X06764829Y02836822D02*
D03*
X06814829D02*
D03*
X06864829D02*
D03*
X06914829D02*
D03*
Y02644822D02*
D03*
X06864829D02*
D03*
X06814829D02*
D03*
X08991829Y02836822D02*
D03*
X09041829D02*
D03*
X09091829D02*
D03*
X09141829D02*
D03*
Y02644822D02*
D03*
X09091829D02*
D03*
X09041829D02*
D03*
X00083827Y05081666D02*
D03*
X00133827D02*
D03*
X00183827D02*
D03*
X00233827D02*
D03*
Y04889666D02*
D03*
X00183827D02*
D03*
X00133827D02*
D03*
X02310828Y05081666D02*
D03*
X02360828D02*
D03*
X02410828D02*
D03*
X02460828D02*
D03*
Y04889666D02*
D03*
X02410828D02*
D03*
X02360828D02*
D03*
X04537828Y05081666D02*
D03*
X04587828D02*
D03*
X04637828D02*
D03*
X04687828D02*
D03*
Y04889666D02*
D03*
X04637828D02*
D03*
X04587828D02*
D03*
X06764829Y05081666D02*
D03*
X06814829D02*
D03*
X06864829D02*
D03*
X06914829D02*
D03*
Y04889666D02*
D03*
X06864829D02*
D03*
X06814829D02*
D03*
X08991829Y05081666D02*
D03*
X09041829D02*
D03*
X09091829D02*
D03*
X09141829D02*
D03*
Y04889666D02*
D03*
X09091829D02*
D03*
X09041829D02*
D03*
X00083827Y0732651D02*
D03*
X00133827D02*
D03*
X00183827D02*
D03*
X00233827D02*
D03*
Y0713451D02*
D03*
X00183827D02*
D03*
X00133827D02*
D03*
X02310828Y0732651D02*
D03*
X02360828D02*
D03*
X02410828D02*
D03*
X02460828D02*
D03*
Y0713451D02*
D03*
X02410828D02*
D03*
X02360828D02*
D03*
X04537828Y0732651D02*
D03*
X04587828D02*
D03*
X04637828D02*
D03*
X04687828D02*
D03*
Y0713451D02*
D03*
X04637828D02*
D03*
X04587828D02*
D03*
X06764829Y0732651D02*
D03*
X06814829D02*
D03*
X06864829D02*
D03*
X06914829D02*
D03*
Y0713451D02*
D03*
X06864829D02*
D03*
X06814829D02*
D03*
X08991829Y0732651D02*
D03*
X09041829D02*
D03*
X09091829D02*
D03*
X09141829D02*
D03*
Y0713451D02*
D03*
X09091829D02*
D03*
X09041829D02*
D03*
D15*
X00083827Y00399978D02*
D03*
X02310828D02*
D03*
X04537828D02*
D03*
X06764829D02*
D03*
X08991829D02*
D03*
X00083827Y02644822D02*
D03*
X02310828D02*
D03*
X04537828D02*
D03*
X06764829D02*
D03*
X08991829D02*
D03*
X00083827Y04889666D02*
D03*
X02310828D02*
D03*
X04537828D02*
D03*
X06764829D02*
D03*
X08991829D02*
D03*
X00083827Y0713451D02*
D03*
X02310828D02*
D03*
X04537828D02*
D03*
X06764829D02*
D03*
X08991829D02*
D03*
D16*
X01117575Y00552844D02*
D03*
X03344576D02*
D03*
X05571576D02*
D03*
X07798577D02*
D03*
X10025577D02*
D03*
X01117575Y02797688D02*
D03*
X03344576D02*
D03*
X05571576D02*
D03*
X07798577D02*
D03*
X10025577D02*
D03*
X01117575Y05042532D02*
D03*
X03344576D02*
D03*
X05571576D02*
D03*
X07798577D02*
D03*
X10025577D02*
D03*
X01117575Y07287376D02*
D03*
X03344576D02*
D03*
X05571576D02*
D03*
X07798577D02*
D03*
X10025577D02*
D03*
D17*
X01117575Y00502844D02*
D03*
Y00452844D02*
D03*
Y00402844D02*
D03*
X01314426D02*
D03*
Y00452844D02*
D03*
Y00502844D02*
D03*
Y00552844D02*
D03*
X03344576Y00502844D02*
D03*
Y00452844D02*
D03*
Y00402844D02*
D03*
X03541426D02*
D03*
Y00452844D02*
D03*
Y00502844D02*
D03*
Y00552844D02*
D03*
X05571576Y00502844D02*
D03*
Y00452844D02*
D03*
Y00402844D02*
D03*
X05768427D02*
D03*
Y00452844D02*
D03*
Y00502844D02*
D03*
Y00552844D02*
D03*
X07798577Y00502844D02*
D03*
Y00452844D02*
D03*
Y00402844D02*
D03*
X07995427D02*
D03*
Y00452844D02*
D03*
Y00502844D02*
D03*
Y00552844D02*
D03*
X10025577Y00502844D02*
D03*
Y00452844D02*
D03*
Y00402844D02*
D03*
X10222428D02*
D03*
Y00452844D02*
D03*
Y00502844D02*
D03*
Y00552844D02*
D03*
X01117575Y02747688D02*
D03*
Y02697688D02*
D03*
Y02647688D02*
D03*
X01314426D02*
D03*
Y02697688D02*
D03*
Y02747688D02*
D03*
Y02797688D02*
D03*
X03344576Y02747688D02*
D03*
Y02697688D02*
D03*
Y02647688D02*
D03*
X03541426D02*
D03*
Y02697688D02*
D03*
Y02747688D02*
D03*
Y02797688D02*
D03*
X05571576Y02747688D02*
D03*
Y02697688D02*
D03*
Y02647688D02*
D03*
X05768427D02*
D03*
Y02697688D02*
D03*
Y02747688D02*
D03*
Y02797688D02*
D03*
X07798577Y02747688D02*
D03*
Y02697688D02*
D03*
Y02647688D02*
D03*
X07995427D02*
D03*
Y02697688D02*
D03*
Y02747688D02*
D03*
Y02797688D02*
D03*
X10025577Y02747688D02*
D03*
Y02697688D02*
D03*
Y02647688D02*
D03*
X10222428D02*
D03*
Y02697688D02*
D03*
Y02747688D02*
D03*
Y02797688D02*
D03*
X01117575Y04992532D02*
D03*
Y04942532D02*
D03*
Y04892532D02*
D03*
X01314426D02*
D03*
Y04942532D02*
D03*
Y04992532D02*
D03*
Y05042532D02*
D03*
X03344576Y04992532D02*
D03*
Y04942532D02*
D03*
Y04892532D02*
D03*
X03541426D02*
D03*
Y04942532D02*
D03*
Y04992532D02*
D03*
Y05042532D02*
D03*
X05571576Y04992532D02*
D03*
Y04942532D02*
D03*
Y04892532D02*
D03*
X05768427D02*
D03*
Y04942532D02*
D03*
Y04992532D02*
D03*
Y05042532D02*
D03*
X07798577Y04992532D02*
D03*
Y04942532D02*
D03*
Y04892532D02*
D03*
X07995427D02*
D03*
Y04942532D02*
D03*
Y04992532D02*
D03*
Y05042532D02*
D03*
X10025577Y04992532D02*
D03*
Y04942532D02*
D03*
Y04892532D02*
D03*
X10222428D02*
D03*
Y04942532D02*
D03*
Y04992532D02*
D03*
Y05042532D02*
D03*
X01117575Y07237376D02*
D03*
Y07187376D02*
D03*
Y07137376D02*
D03*
X01314426D02*
D03*
Y07187376D02*
D03*
Y07237376D02*
D03*
Y07287376D02*
D03*
X03344576Y07237376D02*
D03*
Y07187376D02*
D03*
Y07137376D02*
D03*
X03541426D02*
D03*
Y07187376D02*
D03*
Y07237376D02*
D03*
Y07287376D02*
D03*
X05571576Y07237376D02*
D03*
Y07187376D02*
D03*
Y07137376D02*
D03*
X05768427D02*
D03*
Y07187376D02*
D03*
Y07237376D02*
D03*
Y07287376D02*
D03*
X07798577Y07237376D02*
D03*
Y07187376D02*
D03*
Y07137376D02*
D03*
X07995427D02*
D03*
Y07187376D02*
D03*
Y07237376D02*
D03*
Y07287376D02*
D03*
X10025577Y07237376D02*
D03*
Y07187376D02*
D03*
Y07137376D02*
D03*
X10222428D02*
D03*
Y07187376D02*
D03*
Y07237376D02*
D03*
Y07287376D02*
D03*
D18*
X01683001Y0102334D02*
D03*
Y00960348D02*
D03*
X01430001Y00964348D02*
D03*
Y0102734D02*
D03*
X01725001Y00480844D02*
D03*
Y00417852D02*
D03*
X02123001Y00870348D02*
D03*
Y0093334D02*
D03*
X01630001Y0089834D02*
D03*
Y00835348D02*
D03*
X01659001Y0061234D02*
D03*
Y00549348D02*
D03*
X01599001Y0061234D02*
D03*
Y00549348D02*
D03*
X01531001Y0066434D02*
D03*
Y00601348D02*
D03*
X01417001Y0078134D02*
D03*
Y00718348D02*
D03*
X01170001Y00768852D02*
D03*
Y00831844D02*
D03*
X01429001Y0164234D02*
D03*
Y01579348D02*
D03*
X01019Y0022334D02*
D03*
Y00160348D02*
D03*
X02049001Y0093434D02*
D03*
Y00871348D02*
D03*
X01387001Y0050934D02*
D03*
Y00446348D02*
D03*
X01043999Y00496353D02*
D03*
Y00559345D02*
D03*
X00926Y0055934D02*
D03*
Y00496348D02*
D03*
X01098001Y00767348D02*
D03*
Y0083034D02*
D03*
X01861001Y0047934D02*
D03*
Y00416348D02*
D03*
X01796001Y0047934D02*
D03*
Y00416348D02*
D03*
X01572001Y0078034D02*
D03*
Y00717348D02*
D03*
X01629001Y0078034D02*
D03*
Y00717348D02*
D03*
X00866Y00496348D02*
D03*
Y0055934D02*
D03*
X01447001Y0051034D02*
D03*
Y00447348D02*
D03*
X00984Y0055934D02*
D03*
Y00496348D02*
D03*
X01296001Y00660348D02*
D03*
Y0072334D02*
D03*
X01359001Y00660348D02*
D03*
Y0072334D02*
D03*
X00829Y0100934D02*
D03*
Y00946348D02*
D03*
X00084369Y00686507D02*
D03*
Y00749499D02*
D03*
X03910001Y0102334D02*
D03*
Y00960348D02*
D03*
X03657001Y00964348D02*
D03*
Y0102734D02*
D03*
X03952001Y00480844D02*
D03*
Y00417852D02*
D03*
X04350001Y00870348D02*
D03*
Y0093334D02*
D03*
X03857001Y0089834D02*
D03*
Y00835348D02*
D03*
X03886001Y0061234D02*
D03*
Y00549348D02*
D03*
X03826001Y0061234D02*
D03*
Y00549348D02*
D03*
X03758001Y0066434D02*
D03*
Y00601348D02*
D03*
X03644001Y0078134D02*
D03*
Y00718348D02*
D03*
X03397001Y00768852D02*
D03*
Y00831844D02*
D03*
X03656001Y0164234D02*
D03*
Y01579348D02*
D03*
X03246001Y0022334D02*
D03*
Y00160348D02*
D03*
X04276001Y0093434D02*
D03*
Y00871348D02*
D03*
X03614001Y0050934D02*
D03*
Y00446348D02*
D03*
X03270999Y00496353D02*
D03*
Y00559345D02*
D03*
X03153001Y0055934D02*
D03*
Y00496348D02*
D03*
X03325001Y00767348D02*
D03*
Y0083034D02*
D03*
X04088001Y0047934D02*
D03*
Y00416348D02*
D03*
X04023001Y0047934D02*
D03*
Y00416348D02*
D03*
X03799001Y0078034D02*
D03*
Y00717348D02*
D03*
X03856001Y0078034D02*
D03*
Y00717348D02*
D03*
X03093001Y00496348D02*
D03*
Y0055934D02*
D03*
X03674001Y0051034D02*
D03*
Y00447348D02*
D03*
X03211001Y0055934D02*
D03*
Y00496348D02*
D03*
X03523001Y00660348D02*
D03*
Y0072334D02*
D03*
X03586001Y00660348D02*
D03*
Y0072334D02*
D03*
X03056001Y0100934D02*
D03*
Y00946348D02*
D03*
X0231137Y00686507D02*
D03*
Y00749499D02*
D03*
X06137002Y0102334D02*
D03*
Y00960348D02*
D03*
X05884002Y00964348D02*
D03*
Y0102734D02*
D03*
X06179002Y00480844D02*
D03*
Y00417852D02*
D03*
X06577002Y00870348D02*
D03*
Y0093334D02*
D03*
X06084002Y0089834D02*
D03*
Y00835348D02*
D03*
X06113002Y0061234D02*
D03*
Y00549348D02*
D03*
X06053002Y0061234D02*
D03*
Y00549348D02*
D03*
X05985002Y0066434D02*
D03*
Y00601348D02*
D03*
X05871002Y0078134D02*
D03*
Y00718348D02*
D03*
X05624002Y00768852D02*
D03*
Y00831844D02*
D03*
X05883002Y0164234D02*
D03*
Y01579348D02*
D03*
X05473002Y0022334D02*
D03*
Y00160348D02*
D03*
X06503002Y0093434D02*
D03*
Y00871348D02*
D03*
X05841002Y0050934D02*
D03*
Y00446348D02*
D03*
X05498Y00496353D02*
D03*
Y00559345D02*
D03*
X05380002Y0055934D02*
D03*
Y00496348D02*
D03*
X05552002Y00767348D02*
D03*
Y0083034D02*
D03*
X06315002Y0047934D02*
D03*
Y00416348D02*
D03*
X06250002Y0047934D02*
D03*
Y00416348D02*
D03*
X06026002Y0078034D02*
D03*
Y00717348D02*
D03*
X06083002Y0078034D02*
D03*
Y00717348D02*
D03*
X05320002Y00496348D02*
D03*
Y0055934D02*
D03*
X05901002Y0051034D02*
D03*
Y00447348D02*
D03*
X05438002Y0055934D02*
D03*
Y00496348D02*
D03*
X05750002Y00660348D02*
D03*
Y0072334D02*
D03*
X05813002Y00660348D02*
D03*
Y0072334D02*
D03*
X05283002Y0100934D02*
D03*
Y00946348D02*
D03*
X0453837Y00686507D02*
D03*
Y00749499D02*
D03*
X08364002Y0102334D02*
D03*
Y00960348D02*
D03*
X08111002Y00964348D02*
D03*
Y0102734D02*
D03*
X08406002Y00480844D02*
D03*
Y00417852D02*
D03*
X08804002Y00870348D02*
D03*
Y0093334D02*
D03*
X08311002Y0089834D02*
D03*
Y00835348D02*
D03*
X08340002Y0061234D02*
D03*
Y00549348D02*
D03*
X08280002Y0061234D02*
D03*
Y00549348D02*
D03*
X08212002Y0066434D02*
D03*
Y00601348D02*
D03*
X08098002Y0078134D02*
D03*
Y00718348D02*
D03*
X07851002Y00768852D02*
D03*
Y00831844D02*
D03*
X08110002Y0164234D02*
D03*
Y01579348D02*
D03*
X07700002Y0022334D02*
D03*
Y00160348D02*
D03*
X08730002Y0093434D02*
D03*
Y00871348D02*
D03*
X08068002Y0050934D02*
D03*
Y00446348D02*
D03*
X07725Y00496353D02*
D03*
Y00559345D02*
D03*
X07607002Y0055934D02*
D03*
Y00496348D02*
D03*
X07779002Y00767348D02*
D03*
Y0083034D02*
D03*
X08542002Y0047934D02*
D03*
Y00416348D02*
D03*
X08477002Y0047934D02*
D03*
Y00416348D02*
D03*
X08253002Y0078034D02*
D03*
Y00717348D02*
D03*
X08310002Y0078034D02*
D03*
Y00717348D02*
D03*
X07547002Y00496348D02*
D03*
Y0055934D02*
D03*
X08128002Y0051034D02*
D03*
Y00447348D02*
D03*
X07665002Y0055934D02*
D03*
Y00496348D02*
D03*
X07977002Y00660348D02*
D03*
Y0072334D02*
D03*
X08040002Y00660348D02*
D03*
Y0072334D02*
D03*
X07510002Y0100934D02*
D03*
Y00946348D02*
D03*
X06765371Y00686507D02*
D03*
Y00749499D02*
D03*
X10591003Y0102334D02*
D03*
Y00960348D02*
D03*
X10338003Y00964348D02*
D03*
Y0102734D02*
D03*
X10633003Y00480844D02*
D03*
Y00417852D02*
D03*
X11031003Y00870348D02*
D03*
Y0093334D02*
D03*
X10538003Y0089834D02*
D03*
Y00835348D02*
D03*
X10567003Y0061234D02*
D03*
Y00549348D02*
D03*
X10507003Y0061234D02*
D03*
Y00549348D02*
D03*
X10439003Y0066434D02*
D03*
Y00601348D02*
D03*
X10325003Y0078134D02*
D03*
Y00718348D02*
D03*
X10078003Y00768852D02*
D03*
Y00831844D02*
D03*
X10337003Y0164234D02*
D03*
Y01579348D02*
D03*
X09927003Y0022334D02*
D03*
Y00160348D02*
D03*
X10957003Y0093434D02*
D03*
Y00871348D02*
D03*
X10295003Y0050934D02*
D03*
Y00446348D02*
D03*
X09952001Y00496353D02*
D03*
Y00559345D02*
D03*
X09834003Y0055934D02*
D03*
Y00496348D02*
D03*
X10006003Y00767348D02*
D03*
Y0083034D02*
D03*
X10769003Y0047934D02*
D03*
Y00416348D02*
D03*
X10704003Y0047934D02*
D03*
Y00416348D02*
D03*
X10480003Y0078034D02*
D03*
Y00717348D02*
D03*
X10537003Y0078034D02*
D03*
Y00717348D02*
D03*
X09774003Y00496348D02*
D03*
Y0055934D02*
D03*
X10355003Y0051034D02*
D03*
Y00447348D02*
D03*
X09892003Y0055934D02*
D03*
Y00496348D02*
D03*
X10204003Y00660348D02*
D03*
Y0072334D02*
D03*
X10267003Y00660348D02*
D03*
Y0072334D02*
D03*
X09737003Y0100934D02*
D03*
Y00946348D02*
D03*
X08992371Y00686507D02*
D03*
Y00749499D02*
D03*
X01683001Y03268184D02*
D03*
Y03205192D02*
D03*
X01430001Y03209192D02*
D03*
Y03272184D02*
D03*
X01725001Y02725688D02*
D03*
Y02662696D02*
D03*
X02123001Y03115192D02*
D03*
Y03178184D02*
D03*
X01630001Y03143184D02*
D03*
Y03080192D02*
D03*
X01659001Y02857184D02*
D03*
Y02794192D02*
D03*
X01599001Y02857184D02*
D03*
Y02794192D02*
D03*
X01531001Y02909184D02*
D03*
Y02846192D02*
D03*
X01417001Y03026184D02*
D03*
Y02963192D02*
D03*
X01170001Y03013696D02*
D03*
Y03076688D02*
D03*
X01429001Y03887184D02*
D03*
Y03824192D02*
D03*
X01019Y02468184D02*
D03*
Y02405192D02*
D03*
X02049001Y03179184D02*
D03*
Y03116192D02*
D03*
X01387001Y02754184D02*
D03*
Y02691192D02*
D03*
X01043999Y02741196D02*
D03*
Y02804189D02*
D03*
X00926Y02804184D02*
D03*
Y02741192D02*
D03*
X01098001Y03012192D02*
D03*
Y03075184D02*
D03*
X01861001Y02724184D02*
D03*
Y02661192D02*
D03*
X01796001Y02724184D02*
D03*
Y02661192D02*
D03*
X01572001Y03025184D02*
D03*
Y02962192D02*
D03*
X01629001Y03025184D02*
D03*
Y02962192D02*
D03*
X00866Y02741192D02*
D03*
Y02804184D02*
D03*
X01447001Y02755184D02*
D03*
Y02692192D02*
D03*
X00984Y02804184D02*
D03*
Y02741192D02*
D03*
X01296001Y02905192D02*
D03*
Y02968184D02*
D03*
X01359001Y02905192D02*
D03*
Y02968184D02*
D03*
X00829Y03254184D02*
D03*
Y03191192D02*
D03*
X00084369Y02931351D02*
D03*
Y02994343D02*
D03*
X03910001Y03268184D02*
D03*
Y03205192D02*
D03*
X03657001Y03209192D02*
D03*
Y03272184D02*
D03*
X03952001Y02725688D02*
D03*
Y02662696D02*
D03*
X04350001Y03115192D02*
D03*
Y03178184D02*
D03*
X03857001Y03143184D02*
D03*
Y03080192D02*
D03*
X03886001Y02857184D02*
D03*
Y02794192D02*
D03*
X03826001Y02857184D02*
D03*
Y02794192D02*
D03*
X03758001Y02909184D02*
D03*
Y02846192D02*
D03*
X03644001Y03026184D02*
D03*
Y02963192D02*
D03*
X03397001Y03013696D02*
D03*
Y03076688D02*
D03*
X03656001Y03887184D02*
D03*
Y03824192D02*
D03*
X03246001Y02468184D02*
D03*
Y02405192D02*
D03*
X04276001Y03179184D02*
D03*
Y03116192D02*
D03*
X03614001Y02754184D02*
D03*
Y02691192D02*
D03*
X03270999Y02741196D02*
D03*
Y02804189D02*
D03*
X03153001Y02804184D02*
D03*
Y02741192D02*
D03*
X03325001Y03012192D02*
D03*
Y03075184D02*
D03*
X04088001Y02724184D02*
D03*
Y02661192D02*
D03*
X04023001Y02724184D02*
D03*
Y02661192D02*
D03*
X03799001Y03025184D02*
D03*
Y02962192D02*
D03*
X03856001Y03025184D02*
D03*
Y02962192D02*
D03*
X03093001Y02741192D02*
D03*
Y02804184D02*
D03*
X03674001Y02755184D02*
D03*
Y02692192D02*
D03*
X03211001Y02804184D02*
D03*
Y02741192D02*
D03*
X03523001Y02905192D02*
D03*
Y02968184D02*
D03*
X03586001Y02905192D02*
D03*
Y02968184D02*
D03*
X03056001Y03254184D02*
D03*
Y03191192D02*
D03*
X0231137Y02931351D02*
D03*
Y02994343D02*
D03*
X06137002Y03268184D02*
D03*
Y03205192D02*
D03*
X05884002Y03209192D02*
D03*
Y03272184D02*
D03*
X06179002Y02725688D02*
D03*
Y02662696D02*
D03*
X06577002Y03115192D02*
D03*
Y03178184D02*
D03*
X06084002Y03143184D02*
D03*
Y03080192D02*
D03*
X06113002Y02857184D02*
D03*
Y02794192D02*
D03*
X06053002Y02857184D02*
D03*
Y02794192D02*
D03*
X05985002Y02909184D02*
D03*
Y02846192D02*
D03*
X05871002Y03026184D02*
D03*
Y02963192D02*
D03*
X05624002Y03013696D02*
D03*
Y03076688D02*
D03*
X05883002Y03887184D02*
D03*
Y03824192D02*
D03*
X05473002Y02468184D02*
D03*
Y02405192D02*
D03*
X06503002Y03179184D02*
D03*
Y03116192D02*
D03*
X05841002Y02754184D02*
D03*
Y02691192D02*
D03*
X05498Y02741196D02*
D03*
Y02804189D02*
D03*
X05380002Y02804184D02*
D03*
Y02741192D02*
D03*
X05552002Y03012192D02*
D03*
Y03075184D02*
D03*
X06315002Y02724184D02*
D03*
Y02661192D02*
D03*
X06250002Y02724184D02*
D03*
Y02661192D02*
D03*
X06026002Y03025184D02*
D03*
Y02962192D02*
D03*
X06083002Y03025184D02*
D03*
Y02962192D02*
D03*
X05320002Y02741192D02*
D03*
Y02804184D02*
D03*
X05901002Y02755184D02*
D03*
Y02692192D02*
D03*
X05438002Y02804184D02*
D03*
Y02741192D02*
D03*
X05750002Y02905192D02*
D03*
Y02968184D02*
D03*
X05813002Y02905192D02*
D03*
Y02968184D02*
D03*
X05283002Y03254184D02*
D03*
Y03191192D02*
D03*
X0453837Y02931351D02*
D03*
Y02994343D02*
D03*
X08364002Y03268184D02*
D03*
Y03205192D02*
D03*
X08111002Y03209192D02*
D03*
Y03272184D02*
D03*
X08406002Y02725688D02*
D03*
Y02662696D02*
D03*
X08804002Y03115192D02*
D03*
Y03178184D02*
D03*
X08311002Y03143184D02*
D03*
Y03080192D02*
D03*
X08340002Y02857184D02*
D03*
Y02794192D02*
D03*
X08280002Y02857184D02*
D03*
Y02794192D02*
D03*
X08212002Y02909184D02*
D03*
Y02846192D02*
D03*
X08098002Y03026184D02*
D03*
Y02963192D02*
D03*
X07851002Y03013696D02*
D03*
Y03076688D02*
D03*
X08110002Y03887184D02*
D03*
Y03824192D02*
D03*
X07700002Y02468184D02*
D03*
Y02405192D02*
D03*
X08730002Y03179184D02*
D03*
Y03116192D02*
D03*
X08068002Y02754184D02*
D03*
Y02691192D02*
D03*
X07725Y02741196D02*
D03*
Y02804189D02*
D03*
X07607002Y02804184D02*
D03*
Y02741192D02*
D03*
X07779002Y03012192D02*
D03*
Y03075184D02*
D03*
X08542002Y02724184D02*
D03*
Y02661192D02*
D03*
X08477002Y02724184D02*
D03*
Y02661192D02*
D03*
X08253002Y03025184D02*
D03*
Y02962192D02*
D03*
X08310002Y03025184D02*
D03*
Y02962192D02*
D03*
X07547002Y02741192D02*
D03*
Y02804184D02*
D03*
X08128002Y02755184D02*
D03*
Y02692192D02*
D03*
X07665002Y02804184D02*
D03*
Y02741192D02*
D03*
X07977002Y02905192D02*
D03*
Y02968184D02*
D03*
X08040002Y02905192D02*
D03*
Y02968184D02*
D03*
X07510002Y03254184D02*
D03*
Y03191192D02*
D03*
X06765371Y02931351D02*
D03*
Y02994343D02*
D03*
X10591003Y03268184D02*
D03*
Y03205192D02*
D03*
X10338003Y03209192D02*
D03*
Y03272184D02*
D03*
X10633003Y02725688D02*
D03*
Y02662696D02*
D03*
X11031003Y03115192D02*
D03*
Y03178184D02*
D03*
X10538003Y03143184D02*
D03*
Y03080192D02*
D03*
X10567003Y02857184D02*
D03*
Y02794192D02*
D03*
X10507003Y02857184D02*
D03*
Y02794192D02*
D03*
X10439003Y02909184D02*
D03*
Y02846192D02*
D03*
X10325003Y03026184D02*
D03*
Y02963192D02*
D03*
X10078003Y03013696D02*
D03*
Y03076688D02*
D03*
X10337003Y03887184D02*
D03*
Y03824192D02*
D03*
X09927003Y02468184D02*
D03*
Y02405192D02*
D03*
X10957003Y03179184D02*
D03*
Y03116192D02*
D03*
X10295003Y02754184D02*
D03*
Y02691192D02*
D03*
X09952001Y02741196D02*
D03*
Y02804189D02*
D03*
X09834003Y02804184D02*
D03*
Y02741192D02*
D03*
X10006003Y03012192D02*
D03*
Y03075184D02*
D03*
X10769003Y02724184D02*
D03*
Y02661192D02*
D03*
X10704003Y02724184D02*
D03*
Y02661192D02*
D03*
X10480003Y03025184D02*
D03*
Y02962192D02*
D03*
X10537003Y03025184D02*
D03*
Y02962192D02*
D03*
X09774003Y02741192D02*
D03*
Y02804184D02*
D03*
X10355003Y02755184D02*
D03*
Y02692192D02*
D03*
X09892003Y02804184D02*
D03*
Y02741192D02*
D03*
X10204003Y02905192D02*
D03*
Y02968184D02*
D03*
X10267003Y02905192D02*
D03*
Y02968184D02*
D03*
X09737003Y03254184D02*
D03*
Y03191192D02*
D03*
X08992371Y02931351D02*
D03*
Y02994343D02*
D03*
X01683001Y05513028D02*
D03*
Y05450036D02*
D03*
X01430001Y05454036D02*
D03*
Y05517028D02*
D03*
X01725001Y04970532D02*
D03*
Y04907539D02*
D03*
X02123001Y05360036D02*
D03*
Y05423028D02*
D03*
X01630001Y05388028D02*
D03*
Y05325036D02*
D03*
X01659001Y05102028D02*
D03*
Y05039036D02*
D03*
X01599001Y05102028D02*
D03*
Y05039036D02*
D03*
X01531001Y05154028D02*
D03*
Y05091036D02*
D03*
X01417001Y05271028D02*
D03*
Y05208036D02*
D03*
X01170001Y05258539D02*
D03*
Y05321532D02*
D03*
X01429001Y06132028D02*
D03*
Y06069036D02*
D03*
X01019Y04713028D02*
D03*
Y04650036D02*
D03*
X02049001Y05424028D02*
D03*
Y05361036D02*
D03*
X01387001Y04999028D02*
D03*
Y04936036D02*
D03*
X01043999Y0498604D02*
D03*
Y05049033D02*
D03*
X00926Y05049028D02*
D03*
Y04986035D02*
D03*
X01098001Y05257036D02*
D03*
Y05320028D02*
D03*
X01861001Y04969028D02*
D03*
Y04906036D02*
D03*
X01796001Y04969028D02*
D03*
Y04906036D02*
D03*
X01572001Y05270028D02*
D03*
Y05207036D02*
D03*
X01629001Y05270028D02*
D03*
Y05207036D02*
D03*
X00866Y04986036D02*
D03*
Y05049028D02*
D03*
X01447001Y05000028D02*
D03*
Y04937035D02*
D03*
X00984Y05049028D02*
D03*
Y04986035D02*
D03*
X01296001Y05150035D02*
D03*
Y05213028D02*
D03*
X01359001Y05150035D02*
D03*
Y05213028D02*
D03*
X00829Y05499028D02*
D03*
Y05436036D02*
D03*
X00084369Y05176194D02*
D03*
Y05239187D02*
D03*
X03910001Y05513028D02*
D03*
Y05450036D02*
D03*
X03657001Y05454036D02*
D03*
Y05517028D02*
D03*
X03952001Y04970532D02*
D03*
Y04907539D02*
D03*
X04350001Y05360036D02*
D03*
Y05423028D02*
D03*
X03857001Y05388028D02*
D03*
Y05325036D02*
D03*
X03886001Y05102028D02*
D03*
Y05039036D02*
D03*
X03826001Y05102028D02*
D03*
Y05039036D02*
D03*
X03758001Y05154028D02*
D03*
Y05091036D02*
D03*
X03644001Y05271028D02*
D03*
Y05208036D02*
D03*
X03397001Y05258539D02*
D03*
Y05321532D02*
D03*
X03656001Y06132028D02*
D03*
Y06069036D02*
D03*
X03246001Y04713028D02*
D03*
Y04650036D02*
D03*
X04276001Y05424028D02*
D03*
Y05361036D02*
D03*
X03614001Y04999028D02*
D03*
Y04936036D02*
D03*
X03270999Y0498604D02*
D03*
Y05049033D02*
D03*
X03153001Y05049028D02*
D03*
Y04986035D02*
D03*
X03325001Y05257036D02*
D03*
Y05320028D02*
D03*
X04088001Y04969028D02*
D03*
Y04906036D02*
D03*
X04023001Y04969028D02*
D03*
Y04906036D02*
D03*
X03799001Y05270028D02*
D03*
Y05207036D02*
D03*
X03856001Y05270028D02*
D03*
Y05207036D02*
D03*
X03093001Y04986036D02*
D03*
Y05049028D02*
D03*
X03674001Y05000028D02*
D03*
Y04937035D02*
D03*
X03211001Y05049028D02*
D03*
Y04986035D02*
D03*
X03523001Y05150035D02*
D03*
Y05213028D02*
D03*
X03586001Y05150035D02*
D03*
Y05213028D02*
D03*
X03056001Y05499028D02*
D03*
Y05436036D02*
D03*
X0231137Y05176194D02*
D03*
Y05239187D02*
D03*
X06137002Y05513028D02*
D03*
Y05450036D02*
D03*
X05884002Y05454036D02*
D03*
Y05517028D02*
D03*
X06179002Y04970532D02*
D03*
Y04907539D02*
D03*
X06577002Y05360036D02*
D03*
Y05423028D02*
D03*
X06084002Y05388028D02*
D03*
Y05325036D02*
D03*
X06113002Y05102028D02*
D03*
Y05039036D02*
D03*
X06053002Y05102028D02*
D03*
Y05039036D02*
D03*
X05985002Y05154028D02*
D03*
Y05091036D02*
D03*
X05871002Y05271028D02*
D03*
Y05208036D02*
D03*
X05624002Y05258539D02*
D03*
Y05321532D02*
D03*
X05883002Y06132028D02*
D03*
Y06069036D02*
D03*
X05473002Y04713028D02*
D03*
Y04650036D02*
D03*
X06503002Y05424028D02*
D03*
Y05361036D02*
D03*
X05841002Y04999028D02*
D03*
Y04936036D02*
D03*
X05498Y0498604D02*
D03*
Y05049033D02*
D03*
X05380002Y05049028D02*
D03*
Y04986035D02*
D03*
X05552002Y05257036D02*
D03*
Y05320028D02*
D03*
X06315002Y04969028D02*
D03*
Y04906036D02*
D03*
X06250002Y04969028D02*
D03*
Y04906036D02*
D03*
X06026002Y05270028D02*
D03*
Y05207036D02*
D03*
X06083002Y05270028D02*
D03*
Y05207036D02*
D03*
X05320002Y04986036D02*
D03*
Y05049028D02*
D03*
X05901002Y05000028D02*
D03*
Y04937035D02*
D03*
X05438002Y05049028D02*
D03*
Y04986035D02*
D03*
X05750002Y05150035D02*
D03*
Y05213028D02*
D03*
X05813002Y05150035D02*
D03*
Y05213028D02*
D03*
X05283002Y05499028D02*
D03*
Y05436036D02*
D03*
X0453837Y05176194D02*
D03*
Y05239187D02*
D03*
X08364002Y05513028D02*
D03*
Y05450036D02*
D03*
X08111002Y05454036D02*
D03*
Y05517028D02*
D03*
X08406002Y04970532D02*
D03*
Y04907539D02*
D03*
X08804002Y05360036D02*
D03*
Y05423028D02*
D03*
X08311002Y05388028D02*
D03*
Y05325036D02*
D03*
X08340002Y05102028D02*
D03*
Y05039036D02*
D03*
X08280002Y05102028D02*
D03*
Y05039036D02*
D03*
X08212002Y05154028D02*
D03*
Y05091036D02*
D03*
X08098002Y05271028D02*
D03*
Y05208036D02*
D03*
X07851002Y05258539D02*
D03*
Y05321532D02*
D03*
X08110002Y06132028D02*
D03*
Y06069036D02*
D03*
X07700002Y04713028D02*
D03*
Y04650036D02*
D03*
X08730002Y05424028D02*
D03*
Y05361036D02*
D03*
X08068002Y04999028D02*
D03*
Y04936036D02*
D03*
X07725Y0498604D02*
D03*
Y05049033D02*
D03*
X07607002Y05049028D02*
D03*
Y04986035D02*
D03*
X07779002Y05257036D02*
D03*
Y05320028D02*
D03*
X08542002Y04969028D02*
D03*
Y04906036D02*
D03*
X08477002Y04969028D02*
D03*
Y04906036D02*
D03*
X08253002Y05270028D02*
D03*
Y05207036D02*
D03*
X08310002Y05270028D02*
D03*
Y05207036D02*
D03*
X07547002Y04986036D02*
D03*
Y05049028D02*
D03*
X08128002Y05000028D02*
D03*
Y04937035D02*
D03*
X07665002Y05049028D02*
D03*
Y04986035D02*
D03*
X07977002Y05150035D02*
D03*
Y05213028D02*
D03*
X08040002Y05150035D02*
D03*
Y05213028D02*
D03*
X07510002Y05499028D02*
D03*
Y05436036D02*
D03*
X06765371Y05176194D02*
D03*
Y05239187D02*
D03*
X10591003Y05513028D02*
D03*
Y05450036D02*
D03*
X10338003Y05454036D02*
D03*
Y05517028D02*
D03*
X10633003Y04970532D02*
D03*
Y04907539D02*
D03*
X11031003Y05360036D02*
D03*
Y05423028D02*
D03*
X10538003Y05388028D02*
D03*
Y05325036D02*
D03*
X10567003Y05102028D02*
D03*
Y05039036D02*
D03*
X10507003Y05102028D02*
D03*
Y05039036D02*
D03*
X10439003Y05154028D02*
D03*
Y05091036D02*
D03*
X10325003Y05271028D02*
D03*
Y05208036D02*
D03*
X10078003Y05258539D02*
D03*
Y05321532D02*
D03*
X10337003Y06132028D02*
D03*
Y06069036D02*
D03*
X09927003Y04713028D02*
D03*
Y04650036D02*
D03*
X10957003Y05424028D02*
D03*
Y05361036D02*
D03*
X10295003Y04999028D02*
D03*
Y04936036D02*
D03*
X09952001Y0498604D02*
D03*
Y05049033D02*
D03*
X09834003Y05049028D02*
D03*
Y04986035D02*
D03*
X10006003Y05257036D02*
D03*
Y05320028D02*
D03*
X10769003Y04969028D02*
D03*
Y04906036D02*
D03*
X10704003Y04969028D02*
D03*
Y04906036D02*
D03*
X10480003Y05270028D02*
D03*
Y05207036D02*
D03*
X10537003Y05270028D02*
D03*
Y05207036D02*
D03*
X09774003Y04986036D02*
D03*
Y05049028D02*
D03*
X10355003Y05000028D02*
D03*
Y04937035D02*
D03*
X09892003Y05049028D02*
D03*
Y04986035D02*
D03*
X10204003Y05150035D02*
D03*
Y05213028D02*
D03*
X10267003Y05150035D02*
D03*
Y05213028D02*
D03*
X09737003Y05499028D02*
D03*
Y05436036D02*
D03*
X08992371Y05176194D02*
D03*
Y05239187D02*
D03*
X01683001Y07757872D02*
D03*
Y0769488D02*
D03*
X01430001Y0769888D02*
D03*
Y07761872D02*
D03*
X01725001Y07215376D02*
D03*
Y07152383D02*
D03*
X02123001Y0760488D02*
D03*
Y07667872D02*
D03*
X01630001Y07632872D02*
D03*
Y0756988D02*
D03*
X01659001Y07346872D02*
D03*
Y0728388D02*
D03*
X01599001Y07346872D02*
D03*
Y0728388D02*
D03*
X01531001Y07398872D02*
D03*
Y0733588D02*
D03*
X01417001Y07515872D02*
D03*
Y0745288D02*
D03*
X01170001Y07503383D02*
D03*
Y07566376D02*
D03*
X01429001Y08376872D02*
D03*
Y08313879D02*
D03*
X01019Y06957872D02*
D03*
Y0689488D02*
D03*
X02049001Y07668872D02*
D03*
Y0760588D02*
D03*
X01387001Y07243872D02*
D03*
Y0718088D02*
D03*
X01043999Y07230884D02*
D03*
Y07293876D02*
D03*
X00926Y07293872D02*
D03*
Y07230879D02*
D03*
X01098001Y0750188D02*
D03*
Y07564872D02*
D03*
X01861001Y07213872D02*
D03*
Y0715088D02*
D03*
X01796001Y07213872D02*
D03*
Y0715088D02*
D03*
X01572001Y07514872D02*
D03*
Y0745188D02*
D03*
X01629001Y07514872D02*
D03*
Y0745188D02*
D03*
X00866Y0723088D02*
D03*
Y07293872D02*
D03*
X01447001Y07244872D02*
D03*
Y07181879D02*
D03*
X00984Y07293872D02*
D03*
Y07230879D02*
D03*
X01296001Y07394879D02*
D03*
Y07457872D02*
D03*
X01359001Y07394879D02*
D03*
Y07457872D02*
D03*
X00829Y07743872D02*
D03*
Y0768088D02*
D03*
X00084369Y07421038D02*
D03*
Y0748403D02*
D03*
X03910001Y07757872D02*
D03*
Y0769488D02*
D03*
X03657001Y0769888D02*
D03*
Y07761872D02*
D03*
X03952001Y07215376D02*
D03*
Y07152383D02*
D03*
X04350001Y0760488D02*
D03*
Y07667872D02*
D03*
X03857001Y07632872D02*
D03*
Y0756988D02*
D03*
X03886001Y07346872D02*
D03*
Y0728388D02*
D03*
X03826001Y07346872D02*
D03*
Y0728388D02*
D03*
X03758001Y07398872D02*
D03*
Y0733588D02*
D03*
X03644001Y07515872D02*
D03*
Y0745288D02*
D03*
X03397001Y07503383D02*
D03*
Y07566376D02*
D03*
X03656001Y08376872D02*
D03*
Y08313879D02*
D03*
X03246001Y06957872D02*
D03*
Y0689488D02*
D03*
X04276001Y07668872D02*
D03*
Y0760588D02*
D03*
X03614001Y07243872D02*
D03*
Y0718088D02*
D03*
X03270999Y07230884D02*
D03*
Y07293876D02*
D03*
X03153001Y07293872D02*
D03*
Y07230879D02*
D03*
X03325001Y0750188D02*
D03*
Y07564872D02*
D03*
X04088001Y07213872D02*
D03*
Y0715088D02*
D03*
X04023001Y07213872D02*
D03*
Y0715088D02*
D03*
X03799001Y07514872D02*
D03*
Y0745188D02*
D03*
X03856001Y07514872D02*
D03*
Y0745188D02*
D03*
X03093001Y0723088D02*
D03*
Y07293872D02*
D03*
X03674001Y07244872D02*
D03*
Y07181879D02*
D03*
X03211001Y07293872D02*
D03*
Y07230879D02*
D03*
X03523001Y07394879D02*
D03*
Y07457872D02*
D03*
X03586001Y07394879D02*
D03*
Y07457872D02*
D03*
X03056001Y07743872D02*
D03*
Y0768088D02*
D03*
X0231137Y07421038D02*
D03*
Y0748403D02*
D03*
X06137002Y07757872D02*
D03*
Y0769488D02*
D03*
X05884002Y0769888D02*
D03*
Y07761872D02*
D03*
X06179002Y07215376D02*
D03*
Y07152383D02*
D03*
X06577002Y0760488D02*
D03*
Y07667872D02*
D03*
X06084002Y07632872D02*
D03*
Y0756988D02*
D03*
X06113002Y07346872D02*
D03*
Y0728388D02*
D03*
X06053002Y07346872D02*
D03*
Y0728388D02*
D03*
X05985002Y07398872D02*
D03*
Y0733588D02*
D03*
X05871002Y07515872D02*
D03*
Y0745288D02*
D03*
X05624002Y07503383D02*
D03*
Y07566376D02*
D03*
X05883002Y08376872D02*
D03*
Y08313879D02*
D03*
X05473002Y06957872D02*
D03*
Y0689488D02*
D03*
X06503002Y07668872D02*
D03*
Y0760588D02*
D03*
X05841002Y07243872D02*
D03*
Y0718088D02*
D03*
X05498Y07230884D02*
D03*
Y07293876D02*
D03*
X05380002Y07293872D02*
D03*
Y07230879D02*
D03*
X05552002Y0750188D02*
D03*
Y07564872D02*
D03*
X06315002Y07213872D02*
D03*
Y0715088D02*
D03*
X06250002Y07213872D02*
D03*
Y0715088D02*
D03*
X06026002Y07514872D02*
D03*
Y0745188D02*
D03*
X06083002Y07514872D02*
D03*
Y0745188D02*
D03*
X05320002Y0723088D02*
D03*
Y07293872D02*
D03*
X05901002Y07244872D02*
D03*
Y07181879D02*
D03*
X05438002Y07293872D02*
D03*
Y07230879D02*
D03*
X05750002Y07394879D02*
D03*
Y07457872D02*
D03*
X05813002Y07394879D02*
D03*
Y07457872D02*
D03*
X05283002Y07743872D02*
D03*
Y0768088D02*
D03*
X0453837Y07421038D02*
D03*
Y0748403D02*
D03*
X08364002Y07757872D02*
D03*
Y0769488D02*
D03*
X08111002Y0769888D02*
D03*
Y07761872D02*
D03*
X08406002Y07215376D02*
D03*
Y07152383D02*
D03*
X08804002Y0760488D02*
D03*
Y07667872D02*
D03*
X08311002Y07632872D02*
D03*
Y0756988D02*
D03*
X08340002Y07346872D02*
D03*
Y0728388D02*
D03*
X08280002Y07346872D02*
D03*
Y0728388D02*
D03*
X08212002Y07398872D02*
D03*
Y0733588D02*
D03*
X08098002Y07515872D02*
D03*
Y0745288D02*
D03*
X07851002Y07503383D02*
D03*
Y07566376D02*
D03*
X08110002Y08376872D02*
D03*
Y08313879D02*
D03*
X07700002Y06957872D02*
D03*
Y0689488D02*
D03*
X08730002Y07668872D02*
D03*
Y0760588D02*
D03*
X08068002Y07243872D02*
D03*
Y0718088D02*
D03*
X07725Y07230884D02*
D03*
Y07293876D02*
D03*
X07607002Y07293872D02*
D03*
Y07230879D02*
D03*
X07779002Y0750188D02*
D03*
Y07564872D02*
D03*
X08542002Y07213872D02*
D03*
Y0715088D02*
D03*
X08477002Y07213872D02*
D03*
Y0715088D02*
D03*
X08253002Y07514872D02*
D03*
Y0745188D02*
D03*
X08310002Y07514872D02*
D03*
Y0745188D02*
D03*
X07547002Y0723088D02*
D03*
Y07293872D02*
D03*
X08128002Y07244872D02*
D03*
Y07181879D02*
D03*
X07665002Y07293872D02*
D03*
Y07230879D02*
D03*
X07977002Y07394879D02*
D03*
Y07457872D02*
D03*
X08040002Y07394879D02*
D03*
Y07457872D02*
D03*
X07510002Y07743872D02*
D03*
Y0768088D02*
D03*
X06765371Y07421038D02*
D03*
Y0748403D02*
D03*
X10591003Y07757872D02*
D03*
Y0769488D02*
D03*
X10338003Y0769888D02*
D03*
Y07761872D02*
D03*
X10633003Y07215376D02*
D03*
Y07152383D02*
D03*
X11031003Y0760488D02*
D03*
Y07667872D02*
D03*
X10538003Y07632872D02*
D03*
Y0756988D02*
D03*
X10567003Y07346872D02*
D03*
Y0728388D02*
D03*
X10507003Y07346872D02*
D03*
Y0728388D02*
D03*
X10439003Y07398872D02*
D03*
Y0733588D02*
D03*
X10325003Y07515872D02*
D03*
Y0745288D02*
D03*
X10078003Y07503383D02*
D03*
Y07566376D02*
D03*
X10337003Y08376872D02*
D03*
Y08313879D02*
D03*
X09927003Y06957872D02*
D03*
Y0689488D02*
D03*
X10957003Y07668872D02*
D03*
Y0760588D02*
D03*
X10295003Y07243872D02*
D03*
Y0718088D02*
D03*
X09952001Y07230884D02*
D03*
Y07293876D02*
D03*
X09834003Y07293872D02*
D03*
Y07230879D02*
D03*
X10006003Y0750188D02*
D03*
Y07564872D02*
D03*
X10769003Y07213872D02*
D03*
Y0715088D02*
D03*
X10704003Y07213872D02*
D03*
Y0715088D02*
D03*
X10480003Y07514872D02*
D03*
Y0745188D02*
D03*
X10537003Y07514872D02*
D03*
Y0745188D02*
D03*
X09774003Y0723088D02*
D03*
Y07293872D02*
D03*
X10355003Y07244872D02*
D03*
Y07181879D02*
D03*
X09892003Y07293872D02*
D03*
Y07230879D02*
D03*
X10204003Y07394879D02*
D03*
Y07457872D02*
D03*
X10267003Y07394879D02*
D03*
Y07457872D02*
D03*
X09737003Y07743872D02*
D03*
Y0768088D02*
D03*
X08992371Y07421038D02*
D03*
Y0748403D02*
D03*
D19*
X02102988Y00653844D02*
D03*
X02039996D02*
D03*
X02102988Y00592846D02*
D03*
X02039996D02*
D03*
X01414504Y00663844D02*
D03*
X01477497D02*
D03*
X01146497Y00130844D02*
D03*
X01083504D02*
D03*
X01343497Y01841344D02*
D03*
X01280504D02*
D03*
X01160001Y01346844D02*
D03*
X01097008D02*
D03*
X00416497Y00784844D02*
D03*
X00353504D02*
D03*
X01430008Y00855844D02*
D03*
X01493001D02*
D03*
X02039996Y00714842D02*
D03*
X02102988D02*
D03*
X01338497Y00278844D02*
D03*
X01275505D02*
D03*
Y00334844D02*
D03*
X01338497D02*
D03*
X01171001Y00665844D02*
D03*
X01108008D02*
D03*
X01239504Y01346844D02*
D03*
X01302496D02*
D03*
X00149504Y00686844D02*
D03*
X00212496D02*
D03*
X00413497Y00339844D02*
D03*
X00350504D02*
D03*
X04329988Y00653844D02*
D03*
X04266996D02*
D03*
X04329988Y00592846D02*
D03*
X04266996D02*
D03*
X03641505Y00663844D02*
D03*
X03704497D02*
D03*
X03373497Y00130844D02*
D03*
X03310505D02*
D03*
X03570497Y01841344D02*
D03*
X03507505D02*
D03*
X03387001Y01346844D02*
D03*
X03324009D02*
D03*
X02643497Y00784844D02*
D03*
X02580505D02*
D03*
X03657009Y00855844D02*
D03*
X03720001D02*
D03*
X04266996Y00714842D02*
D03*
X04329988D02*
D03*
X03565497Y00278844D02*
D03*
X03502505D02*
D03*
Y00334844D02*
D03*
X03565497D02*
D03*
X03398001Y00665844D02*
D03*
X03335009D02*
D03*
X03466505Y01346844D02*
D03*
X03529497D02*
D03*
X02376505Y00686844D02*
D03*
X02439497D02*
D03*
X02640497Y00339844D02*
D03*
X02577505D02*
D03*
X06556989Y00653844D02*
D03*
X06493997D02*
D03*
X06556989Y00592846D02*
D03*
X06493997D02*
D03*
X05868505Y00663844D02*
D03*
X05931498D02*
D03*
X05600498Y00130844D02*
D03*
X05537505D02*
D03*
X05797498Y01841344D02*
D03*
X05734505D02*
D03*
X05614002Y01346844D02*
D03*
X05551009D02*
D03*
X04870498Y00784844D02*
D03*
X04807505D02*
D03*
X05884009Y00855844D02*
D03*
X05947002D02*
D03*
X06493997Y00714842D02*
D03*
X06556989D02*
D03*
X05792498Y00278844D02*
D03*
X05729506D02*
D03*
Y00334844D02*
D03*
X05792498D02*
D03*
X05625002Y00665844D02*
D03*
X05562009D02*
D03*
X05693505Y01346844D02*
D03*
X05756498D02*
D03*
X04603505Y00686844D02*
D03*
X04666498D02*
D03*
X04867498Y00339844D02*
D03*
X04804505D02*
D03*
X08783989Y00653844D02*
D03*
X08720997D02*
D03*
X08783989Y00592846D02*
D03*
X08720997D02*
D03*
X08095506Y00663844D02*
D03*
X08158498D02*
D03*
X07827498Y00130844D02*
D03*
X07764506D02*
D03*
X08024498Y01841344D02*
D03*
X07961506D02*
D03*
X07841002Y01346844D02*
D03*
X0777801D02*
D03*
X07097498Y00784844D02*
D03*
X07034506D02*
D03*
X0811101Y00855844D02*
D03*
X08174002D02*
D03*
X08720997Y00714842D02*
D03*
X08783989D02*
D03*
X08019498Y00278844D02*
D03*
X07956506D02*
D03*
Y00334844D02*
D03*
X08019498D02*
D03*
X07852002Y00665844D02*
D03*
X0778901D02*
D03*
X07920506Y01346844D02*
D03*
X07983498D02*
D03*
X06830506Y00686844D02*
D03*
X06893498D02*
D03*
X07094498Y00339844D02*
D03*
X07031506D02*
D03*
X1101099Y00653844D02*
D03*
X10947998D02*
D03*
X1101099Y00592846D02*
D03*
X10947998D02*
D03*
X10322506Y00663844D02*
D03*
X10385499D02*
D03*
X10054499Y00130844D02*
D03*
X09991506D02*
D03*
X10251499Y01841344D02*
D03*
X10188506D02*
D03*
X10068003Y01346844D02*
D03*
X1000501D02*
D03*
X09324499Y00784844D02*
D03*
X09261506D02*
D03*
X1033801Y00855844D02*
D03*
X10401003D02*
D03*
X10947998Y00714842D02*
D03*
X1101099D02*
D03*
X10246499Y00278844D02*
D03*
X10183506D02*
D03*
Y00334844D02*
D03*
X10246499D02*
D03*
X10079003Y00665844D02*
D03*
X1001601D02*
D03*
X10147506Y01346844D02*
D03*
X10210498D02*
D03*
X09057506Y00686844D02*
D03*
X09120498D02*
D03*
X09321498Y00339844D02*
D03*
X09258506D02*
D03*
X02102988Y02898688D02*
D03*
X02039996D02*
D03*
X02102988Y0283769D02*
D03*
X02039996D02*
D03*
X01414504Y02908688D02*
D03*
X01477497D02*
D03*
X01146497Y02375688D02*
D03*
X01083504D02*
D03*
X01343497Y04086188D02*
D03*
X01280504D02*
D03*
X01160001Y03591688D02*
D03*
X01097008D02*
D03*
X00416497Y03029688D02*
D03*
X00353504D02*
D03*
X01430008Y03100688D02*
D03*
X01493001D02*
D03*
X02039996Y02959686D02*
D03*
X02102988D02*
D03*
X01338497Y02523688D02*
D03*
X01275505D02*
D03*
Y02579688D02*
D03*
X01338497D02*
D03*
X01171001Y02910688D02*
D03*
X01108008D02*
D03*
X01239504Y03591688D02*
D03*
X01302496D02*
D03*
X00149504Y02931688D02*
D03*
X00212496D02*
D03*
X00413497Y02584688D02*
D03*
X00350504D02*
D03*
X04329988Y02898688D02*
D03*
X04266996D02*
D03*
X04329988Y0283769D02*
D03*
X04266996D02*
D03*
X03641505Y02908688D02*
D03*
X03704497D02*
D03*
X03373497Y02375688D02*
D03*
X03310505D02*
D03*
X03570497Y04086188D02*
D03*
X03507505D02*
D03*
X03387001Y03591688D02*
D03*
X03324009D02*
D03*
X02643497Y03029688D02*
D03*
X02580505D02*
D03*
X03657009Y03100688D02*
D03*
X03720001D02*
D03*
X04266996Y02959686D02*
D03*
X04329988D02*
D03*
X03565497Y02523688D02*
D03*
X03502505D02*
D03*
Y02579688D02*
D03*
X03565497D02*
D03*
X03398001Y02910688D02*
D03*
X03335009D02*
D03*
X03466505Y03591688D02*
D03*
X03529497D02*
D03*
X02376505Y02931688D02*
D03*
X02439497D02*
D03*
X02640497Y02584688D02*
D03*
X02577505D02*
D03*
X06556989Y02898688D02*
D03*
X06493997D02*
D03*
X06556989Y0283769D02*
D03*
X06493997D02*
D03*
X05868505Y02908688D02*
D03*
X05931498D02*
D03*
X05600498Y02375688D02*
D03*
X05537505D02*
D03*
X05797498Y04086188D02*
D03*
X05734505D02*
D03*
X05614002Y03591688D02*
D03*
X05551009D02*
D03*
X04870498Y03029688D02*
D03*
X04807505D02*
D03*
X05884009Y03100688D02*
D03*
X05947002D02*
D03*
X06493997Y02959686D02*
D03*
X06556989D02*
D03*
X05792498Y02523688D02*
D03*
X05729506D02*
D03*
Y02579688D02*
D03*
X05792498D02*
D03*
X05625002Y02910688D02*
D03*
X05562009D02*
D03*
X05693505Y03591688D02*
D03*
X05756498D02*
D03*
X04603505Y02931688D02*
D03*
X04666498D02*
D03*
X04867498Y02584688D02*
D03*
X04804505D02*
D03*
X08783989Y02898688D02*
D03*
X08720997D02*
D03*
X08783989Y0283769D02*
D03*
X08720997D02*
D03*
X08095506Y02908688D02*
D03*
X08158498D02*
D03*
X07827498Y02375688D02*
D03*
X07764506D02*
D03*
X08024498Y04086188D02*
D03*
X07961506D02*
D03*
X07841002Y03591688D02*
D03*
X0777801D02*
D03*
X07097498Y03029688D02*
D03*
X07034506D02*
D03*
X0811101Y03100688D02*
D03*
X08174002D02*
D03*
X08720997Y02959686D02*
D03*
X08783989D02*
D03*
X08019498Y02523688D02*
D03*
X07956506D02*
D03*
Y02579688D02*
D03*
X08019498D02*
D03*
X07852002Y02910688D02*
D03*
X0778901D02*
D03*
X07920506Y03591688D02*
D03*
X07983498D02*
D03*
X06830506Y02931688D02*
D03*
X06893498D02*
D03*
X07094498Y02584688D02*
D03*
X07031506D02*
D03*
X1101099Y02898688D02*
D03*
X10947998D02*
D03*
X1101099Y0283769D02*
D03*
X10947998D02*
D03*
X10322506Y02908688D02*
D03*
X10385499D02*
D03*
X10054499Y02375688D02*
D03*
X09991506D02*
D03*
X10251499Y04086188D02*
D03*
X10188506D02*
D03*
X10068003Y03591688D02*
D03*
X1000501D02*
D03*
X09324499Y03029688D02*
D03*
X09261506D02*
D03*
X1033801Y03100688D02*
D03*
X10401003D02*
D03*
X10947998Y02959686D02*
D03*
X1101099D02*
D03*
X10246499Y02523688D02*
D03*
X10183506D02*
D03*
Y02579688D02*
D03*
X10246499D02*
D03*
X10079003Y02910688D02*
D03*
X1001601D02*
D03*
X10147506Y03591688D02*
D03*
X10210498D02*
D03*
X09057506Y02931688D02*
D03*
X09120498D02*
D03*
X09321498Y02584688D02*
D03*
X09258506D02*
D03*
X02102988Y05143532D02*
D03*
X02039996D02*
D03*
X02102988Y05082534D02*
D03*
X02039996D02*
D03*
X01414504Y05153532D02*
D03*
X01477497D02*
D03*
X01146497Y04620532D02*
D03*
X01083504D02*
D03*
X01343497Y06331032D02*
D03*
X01280504D02*
D03*
X01160001Y05836532D02*
D03*
X01097008D02*
D03*
X00416497Y05274532D02*
D03*
X00353504D02*
D03*
X01430008Y05345532D02*
D03*
X01493001D02*
D03*
X02039996Y05204529D02*
D03*
X02102988D02*
D03*
X01338497Y04768532D02*
D03*
X01275505D02*
D03*
Y04824532D02*
D03*
X01338497D02*
D03*
X01171001Y05155532D02*
D03*
X01108008D02*
D03*
X01239504Y05836532D02*
D03*
X01302496D02*
D03*
X00149504Y05176532D02*
D03*
X00212496D02*
D03*
X00413497Y04829532D02*
D03*
X00350504D02*
D03*
X04329988Y05143532D02*
D03*
X04266996D02*
D03*
X04329988Y05082534D02*
D03*
X04266996D02*
D03*
X03641505Y05153532D02*
D03*
X03704497D02*
D03*
X03373497Y04620532D02*
D03*
X03310505D02*
D03*
X03570497Y06331032D02*
D03*
X03507505D02*
D03*
X03387001Y05836532D02*
D03*
X03324009D02*
D03*
X02643497Y05274532D02*
D03*
X02580505D02*
D03*
X03657009Y05345532D02*
D03*
X03720001D02*
D03*
X04266996Y05204529D02*
D03*
X04329988D02*
D03*
X03565497Y04768532D02*
D03*
X03502505D02*
D03*
Y04824532D02*
D03*
X03565497D02*
D03*
X03398001Y05155532D02*
D03*
X03335009D02*
D03*
X03466505Y05836532D02*
D03*
X03529497D02*
D03*
X02376505Y05176532D02*
D03*
X02439497D02*
D03*
X02640497Y04829532D02*
D03*
X02577505D02*
D03*
X06556989Y05143532D02*
D03*
X06493997D02*
D03*
X06556989Y05082534D02*
D03*
X06493997D02*
D03*
X05868505Y05153532D02*
D03*
X05931498D02*
D03*
X05600498Y04620532D02*
D03*
X05537505D02*
D03*
X05797498Y06331032D02*
D03*
X05734505D02*
D03*
X05614002Y05836532D02*
D03*
X05551009D02*
D03*
X04870498Y05274532D02*
D03*
X04807505D02*
D03*
X05884009Y05345532D02*
D03*
X05947002D02*
D03*
X06493997Y05204529D02*
D03*
X06556989D02*
D03*
X05792498Y04768532D02*
D03*
X05729506D02*
D03*
Y04824532D02*
D03*
X05792498D02*
D03*
X05625002Y05155532D02*
D03*
X05562009D02*
D03*
X05693505Y05836532D02*
D03*
X05756498D02*
D03*
X04603505Y05176532D02*
D03*
X04666498D02*
D03*
X04867498Y04829532D02*
D03*
X04804505D02*
D03*
X08783989Y05143532D02*
D03*
X08720997D02*
D03*
X08783989Y05082534D02*
D03*
X08720997D02*
D03*
X08095506Y05153532D02*
D03*
X08158498D02*
D03*
X07827498Y04620532D02*
D03*
X07764506D02*
D03*
X08024498Y06331032D02*
D03*
X07961506D02*
D03*
X07841002Y05836532D02*
D03*
X0777801D02*
D03*
X07097498Y05274532D02*
D03*
X07034506D02*
D03*
X0811101Y05345532D02*
D03*
X08174002D02*
D03*
X08720997Y05204529D02*
D03*
X08783989D02*
D03*
X08019498Y04768532D02*
D03*
X07956506D02*
D03*
Y04824532D02*
D03*
X08019498D02*
D03*
X07852002Y05155532D02*
D03*
X0778901D02*
D03*
X07920506Y05836532D02*
D03*
X07983498D02*
D03*
X06830506Y05176532D02*
D03*
X06893498D02*
D03*
X07094498Y04829532D02*
D03*
X07031506D02*
D03*
X1101099Y05143532D02*
D03*
X10947998D02*
D03*
X1101099Y05082534D02*
D03*
X10947998D02*
D03*
X10322506Y05153532D02*
D03*
X10385499D02*
D03*
X10054499Y04620532D02*
D03*
X09991506D02*
D03*
X10251499Y06331032D02*
D03*
X10188506D02*
D03*
X10068003Y05836532D02*
D03*
X1000501D02*
D03*
X09324499Y05274532D02*
D03*
X09261506D02*
D03*
X1033801Y05345532D02*
D03*
X10401003D02*
D03*
X10947998Y05204529D02*
D03*
X1101099D02*
D03*
X10246499Y04768532D02*
D03*
X10183506D02*
D03*
Y04824532D02*
D03*
X10246499D02*
D03*
X10079003Y05155532D02*
D03*
X1001601D02*
D03*
X10147506Y05836532D02*
D03*
X10210498D02*
D03*
X09057506Y05176532D02*
D03*
X09120498D02*
D03*
X09321498Y04829532D02*
D03*
X09258506D02*
D03*
X02102988Y07388376D02*
D03*
X02039996D02*
D03*
X02102988Y07327378D02*
D03*
X02039996D02*
D03*
X01414504Y07398376D02*
D03*
X01477497D02*
D03*
X01146497Y06865376D02*
D03*
X01083504D02*
D03*
X01343497Y08575876D02*
D03*
X01280504D02*
D03*
X01160001Y08081376D02*
D03*
X01097008D02*
D03*
X00416497Y07519376D02*
D03*
X00353504D02*
D03*
X01430008Y07590376D02*
D03*
X01493001D02*
D03*
X02039996Y07449373D02*
D03*
X02102988D02*
D03*
X01338497Y07013376D02*
D03*
X01275505D02*
D03*
Y07069376D02*
D03*
X01338497D02*
D03*
X01171001Y07400376D02*
D03*
X01108008D02*
D03*
X01239504Y08081376D02*
D03*
X01302496D02*
D03*
X00149504Y07421376D02*
D03*
X00212496D02*
D03*
X00413497Y07074376D02*
D03*
X00350504D02*
D03*
X04329988Y07388376D02*
D03*
X04266996D02*
D03*
X04329988Y07327378D02*
D03*
X04266996D02*
D03*
X03641505Y07398376D02*
D03*
X03704497D02*
D03*
X03373497Y06865376D02*
D03*
X03310505D02*
D03*
X03570497Y08575876D02*
D03*
X03507505D02*
D03*
X03387001Y08081376D02*
D03*
X03324009D02*
D03*
X02643497Y07519376D02*
D03*
X02580505D02*
D03*
X03657009Y07590376D02*
D03*
X03720001D02*
D03*
X04266996Y07449373D02*
D03*
X04329988D02*
D03*
X03565497Y07013376D02*
D03*
X03502505D02*
D03*
Y07069376D02*
D03*
X03565497D02*
D03*
X03398001Y07400376D02*
D03*
X03335009D02*
D03*
X03466505Y08081376D02*
D03*
X03529497D02*
D03*
X02376505Y07421376D02*
D03*
X02439497D02*
D03*
X02640497Y07074376D02*
D03*
X02577505D02*
D03*
X06556989Y07388376D02*
D03*
X06493997D02*
D03*
X06556989Y07327378D02*
D03*
X06493997D02*
D03*
X05868505Y07398376D02*
D03*
X05931498D02*
D03*
X05600498Y06865376D02*
D03*
X05537505D02*
D03*
X05797498Y08575876D02*
D03*
X05734505D02*
D03*
X05614002Y08081376D02*
D03*
X05551009D02*
D03*
X04870498Y07519376D02*
D03*
X04807505D02*
D03*
X05884009Y07590376D02*
D03*
X05947002D02*
D03*
X06493997Y07449373D02*
D03*
X06556989D02*
D03*
X05792498Y07013376D02*
D03*
X05729506D02*
D03*
Y07069376D02*
D03*
X05792498D02*
D03*
X05625002Y07400376D02*
D03*
X05562009D02*
D03*
X05693505Y08081376D02*
D03*
X05756498D02*
D03*
X04603505Y07421376D02*
D03*
X04666498D02*
D03*
X04867498Y07074376D02*
D03*
X04804505D02*
D03*
X08783989Y07388376D02*
D03*
X08720997D02*
D03*
X08783989Y07327378D02*
D03*
X08720997D02*
D03*
X08095506Y07398376D02*
D03*
X08158498D02*
D03*
X07827498Y06865376D02*
D03*
X07764506D02*
D03*
X08024498Y08575876D02*
D03*
X07961506D02*
D03*
X07841002Y08081376D02*
D03*
X0777801D02*
D03*
X07097498Y07519376D02*
D03*
X07034506D02*
D03*
X0811101Y07590376D02*
D03*
X08174002D02*
D03*
X08720997Y07449373D02*
D03*
X08783989D02*
D03*
X08019498Y07013376D02*
D03*
X07956506D02*
D03*
Y07069376D02*
D03*
X08019498D02*
D03*
X07852002Y07400376D02*
D03*
X0778901D02*
D03*
X07920506Y08081376D02*
D03*
X07983498D02*
D03*
X06830506Y07421376D02*
D03*
X06893498D02*
D03*
X07094498Y07074376D02*
D03*
X07031506D02*
D03*
X1101099Y07388376D02*
D03*
X10947998D02*
D03*
X1101099Y07327378D02*
D03*
X10947998D02*
D03*
X10322506Y07398376D02*
D03*
X10385499D02*
D03*
X10054499Y06865376D02*
D03*
X09991506D02*
D03*
X10251499Y08575876D02*
D03*
X10188506D02*
D03*
X10068003Y08081376D02*
D03*
X1000501D02*
D03*
X09324499Y07519376D02*
D03*
X09261506D02*
D03*
X1033801Y07590376D02*
D03*
X10401003D02*
D03*
X10947998Y07449373D02*
D03*
X1101099D02*
D03*
X10246499Y07013376D02*
D03*
X10183506D02*
D03*
Y07069376D02*
D03*
X10246499D02*
D03*
X10079003Y07400376D02*
D03*
X1001601D02*
D03*
X10147506Y08081376D02*
D03*
X10210498D02*
D03*
X09057506Y07421376D02*
D03*
X09120498D02*
D03*
X09321498Y07074376D02*
D03*
X09258506D02*
D03*
D20*
X01083914Y00205844D02*
D03*
X01198087D02*
D03*
X02158087Y01348844D02*
D03*
X02043914D02*
D03*
X03310914Y00205844D02*
D03*
X03425088D02*
D03*
X04385088Y01348844D02*
D03*
X04270914D02*
D03*
X05537915Y00205844D02*
D03*
X05652088D02*
D03*
X06612088Y01348844D02*
D03*
X06497915D02*
D03*
X07764915Y00205844D02*
D03*
X07879088D02*
D03*
X08839089Y01348844D02*
D03*
X08724915D02*
D03*
X09991916Y00205844D02*
D03*
X10106089D02*
D03*
X11066089Y01348844D02*
D03*
X10951916D02*
D03*
X01083914Y02450688D02*
D03*
X01198087D02*
D03*
X02158087Y03593688D02*
D03*
X02043914D02*
D03*
X03310914Y02450688D02*
D03*
X03425088D02*
D03*
X04385088Y03593688D02*
D03*
X04270914D02*
D03*
X05537915Y02450688D02*
D03*
X05652088D02*
D03*
X06612088Y03593688D02*
D03*
X06497915D02*
D03*
X07764915Y02450688D02*
D03*
X07879088D02*
D03*
X08839089Y03593688D02*
D03*
X08724915D02*
D03*
X09991916Y02450688D02*
D03*
X10106089D02*
D03*
X11066089Y03593688D02*
D03*
X10951916D02*
D03*
X01083914Y04695532D02*
D03*
X01198087D02*
D03*
X02158087Y05838532D02*
D03*
X02043914D02*
D03*
X03310914Y04695532D02*
D03*
X03425088D02*
D03*
X04385088Y05838532D02*
D03*
X04270914D02*
D03*
X05537915Y04695532D02*
D03*
X05652088D02*
D03*
X06612088Y05838532D02*
D03*
X06497915D02*
D03*
X07764915Y04695532D02*
D03*
X07879088D02*
D03*
X08839089Y05838532D02*
D03*
X08724915D02*
D03*
X09991916Y04695532D02*
D03*
X10106089D02*
D03*
X11066089Y05838532D02*
D03*
X10951916D02*
D03*
X01083914Y06940376D02*
D03*
X01198087D02*
D03*
X02158087Y08083376D02*
D03*
X02043914D02*
D03*
X03310914Y06940376D02*
D03*
X03425088D02*
D03*
X04385088Y08083376D02*
D03*
X04270914D02*
D03*
X05537915Y06940376D02*
D03*
X05652088D02*
D03*
X06612088Y08083376D02*
D03*
X06497915D02*
D03*
X07764915Y06940376D02*
D03*
X07879088D02*
D03*
X08839089Y08083376D02*
D03*
X08724915D02*
D03*
X09991916Y06940376D02*
D03*
X10106089D02*
D03*
X11066089Y08083376D02*
D03*
X10951916D02*
D03*
D21*
X00068001Y00920442D02*
D03*
Y00995245D02*
D03*
X02295001Y00920442D02*
D03*
Y00995245D02*
D03*
X04522002Y00920442D02*
D03*
Y00995245D02*
D03*
X06749002Y00920442D02*
D03*
Y00995245D02*
D03*
X08976003Y00920442D02*
D03*
Y00995245D02*
D03*
X00068001Y03165286D02*
D03*
Y03240089D02*
D03*
X02295001Y03165286D02*
D03*
Y03240089D02*
D03*
X04522002Y03165286D02*
D03*
Y03240089D02*
D03*
X06749002Y03165286D02*
D03*
Y03240089D02*
D03*
X08976003Y03165286D02*
D03*
Y03240089D02*
D03*
X00068001Y0541013D02*
D03*
Y05484933D02*
D03*
X02295001Y0541013D02*
D03*
Y05484933D02*
D03*
X04522002Y0541013D02*
D03*
Y05484933D02*
D03*
X06749002Y0541013D02*
D03*
Y05484933D02*
D03*
X08976003Y0541013D02*
D03*
Y05484933D02*
D03*
X00068001Y07654974D02*
D03*
Y07729777D02*
D03*
X02295001Y07654974D02*
D03*
Y07729777D02*
D03*
X04522002Y07654974D02*
D03*
Y07729777D02*
D03*
X06749002Y07654974D02*
D03*
Y07729777D02*
D03*
X08976003Y07654974D02*
D03*
Y07729777D02*
D03*
D22*
X01355001Y01758844D02*
D03*
Y01683844D02*
D03*
X03582001Y01758844D02*
D03*
Y01683844D02*
D03*
X05809002Y01758844D02*
D03*
Y01683844D02*
D03*
X08036002Y01758844D02*
D03*
Y01683844D02*
D03*
X10263003Y01758844D02*
D03*
Y01683844D02*
D03*
X01355001Y04003688D02*
D03*
Y03928688D02*
D03*
X03582001Y04003688D02*
D03*
Y03928688D02*
D03*
X05809002Y04003688D02*
D03*
Y03928688D02*
D03*
X08036002Y04003688D02*
D03*
Y03928688D02*
D03*
X10263003Y04003688D02*
D03*
Y03928688D02*
D03*
X01355001Y06248532D02*
D03*
Y06173532D02*
D03*
X03582001Y06248532D02*
D03*
Y06173532D02*
D03*
X05809002Y06248532D02*
D03*
Y06173532D02*
D03*
X08036002Y06248532D02*
D03*
Y06173532D02*
D03*
X10263003Y06248532D02*
D03*
Y06173532D02*
D03*
X01355001Y08493376D02*
D03*
Y08418376D02*
D03*
X03582001Y08493376D02*
D03*
Y08418376D02*
D03*
X05809002Y08493376D02*
D03*
Y08418376D02*
D03*
X08036002Y08493376D02*
D03*
Y08418376D02*
D03*
X10263003Y08493376D02*
D03*
Y08418376D02*
D03*
D23*
X01275001Y01721844D02*
D03*
X03502001D02*
D03*
X05729002D02*
D03*
X07956002D02*
D03*
X10183003D02*
D03*
X01275001Y03966688D02*
D03*
X03502001D02*
D03*
X05729002D02*
D03*
X07956002D02*
D03*
X10183003D02*
D03*
X01275001Y06211532D02*
D03*
X03502001D02*
D03*
X05729002D02*
D03*
X07956002D02*
D03*
X10183003D02*
D03*
X01275001Y08456376D02*
D03*
X03502001D02*
D03*
X05729002D02*
D03*
X07956002D02*
D03*
X10183003D02*
D03*
D24*
X00215402Y00753844D02*
D03*
X00140599D02*
D03*
X02442403D02*
D03*
X02367599D02*
D03*
X04669403D02*
D03*
X045946D02*
D03*
X06896404D02*
D03*
X068216D02*
D03*
X09123404D02*
D03*
X09048601D02*
D03*
X00215402Y02998688D02*
D03*
X00140599D02*
D03*
X02442403D02*
D03*
X02367599D02*
D03*
X04669403D02*
D03*
X045946D02*
D03*
X06896404D02*
D03*
X068216D02*
D03*
X09123404D02*
D03*
X09048601D02*
D03*
X00215402Y05243532D02*
D03*
X00140599D02*
D03*
X02442403D02*
D03*
X02367599D02*
D03*
X04669403D02*
D03*
X045946D02*
D03*
X06896404D02*
D03*
X068216D02*
D03*
X09123404D02*
D03*
X09048601D02*
D03*
X00215402Y07488376D02*
D03*
X00140599D02*
D03*
X02442403D02*
D03*
X02367599D02*
D03*
X04669403D02*
D03*
X045946D02*
D03*
X06896404D02*
D03*
X068216D02*
D03*
X09123404D02*
D03*
X09048601D02*
D03*
D25*
X01576001Y00981509D02*
D03*
Y01138179D02*
D03*
X00078001Y01329178D02*
D03*
Y01172509D02*
D03*
X03803001Y00981509D02*
D03*
Y01138179D02*
D03*
X02305001Y01329178D02*
D03*
Y01172509D02*
D03*
X06030002Y00981509D02*
D03*
Y01138179D02*
D03*
X04532002Y01329178D02*
D03*
Y01172509D02*
D03*
X08257002Y00981509D02*
D03*
Y01138179D02*
D03*
X06759002Y01329178D02*
D03*
Y01172509D02*
D03*
X10484003Y00981509D02*
D03*
Y01138179D02*
D03*
X08986003Y01329178D02*
D03*
Y01172509D02*
D03*
X01576001Y03226353D02*
D03*
Y03383023D02*
D03*
X00078001Y03574022D02*
D03*
Y03417353D02*
D03*
X03803001Y03226353D02*
D03*
Y03383023D02*
D03*
X02305001Y03574022D02*
D03*
Y03417353D02*
D03*
X06030002Y03226353D02*
D03*
Y03383023D02*
D03*
X04532002Y03574022D02*
D03*
Y03417353D02*
D03*
X08257002Y03226353D02*
D03*
Y03383023D02*
D03*
X06759002Y03574022D02*
D03*
Y03417353D02*
D03*
X10484003Y03226353D02*
D03*
Y03383023D02*
D03*
X08986003Y03574022D02*
D03*
Y03417353D02*
D03*
X01576001Y05471197D02*
D03*
Y05627866D02*
D03*
X00078001Y05818866D02*
D03*
Y05662197D02*
D03*
X03803001Y05471197D02*
D03*
Y05627866D02*
D03*
X02305001Y05818866D02*
D03*
Y05662197D02*
D03*
X06030002Y05471197D02*
D03*
Y05627866D02*
D03*
X04532002Y05818866D02*
D03*
Y05662197D02*
D03*
X08257002Y05471197D02*
D03*
Y05627866D02*
D03*
X06759002Y05818866D02*
D03*
Y05662197D02*
D03*
X10484003Y05471197D02*
D03*
Y05627866D02*
D03*
X08986003Y05818866D02*
D03*
Y05662197D02*
D03*
X01576001Y07716041D02*
D03*
Y0787271D02*
D03*
X00078001Y0806371D02*
D03*
Y07907041D02*
D03*
X03803001Y07716041D02*
D03*
Y0787271D02*
D03*
X02305001Y0806371D02*
D03*
Y07907041D02*
D03*
X06030002Y07716041D02*
D03*
Y0787271D02*
D03*
X04532002Y0806371D02*
D03*
Y07907041D02*
D03*
X08257002Y07716041D02*
D03*
Y0787271D02*
D03*
X06759002Y0806371D02*
D03*
Y07907041D02*
D03*
X10484003Y07716041D02*
D03*
Y0787271D02*
D03*
X08986003Y0806371D02*
D03*
Y07907041D02*
D03*
D26*
X01933481Y01028844D02*
D03*
X01776001D02*
D03*
X00772Y00618844D02*
D03*
X0061452D02*
D03*
X04160481Y01028844D02*
D03*
X04003001D02*
D03*
X02999001Y00618844D02*
D03*
X02841521D02*
D03*
X06387482Y01028844D02*
D03*
X06230002D02*
D03*
X05226002Y00618844D02*
D03*
X05068521D02*
D03*
X08614482Y01028844D02*
D03*
X08457002D02*
D03*
X07453002Y00618844D02*
D03*
X07295522D02*
D03*
X10841483Y01028844D02*
D03*
X10684003D02*
D03*
X09680003Y00618844D02*
D03*
X09522522D02*
D03*
X01933481Y03273688D02*
D03*
X01776001D02*
D03*
X00772Y02863688D02*
D03*
X0061452D02*
D03*
X04160481Y03273688D02*
D03*
X04003001D02*
D03*
X02999001Y02863688D02*
D03*
X02841521D02*
D03*
X06387482Y03273688D02*
D03*
X06230002D02*
D03*
X05226002Y02863688D02*
D03*
X05068521D02*
D03*
X08614482Y03273688D02*
D03*
X08457002D02*
D03*
X07453002Y02863688D02*
D03*
X07295522D02*
D03*
X10841483Y03273688D02*
D03*
X10684003D02*
D03*
X09680003Y02863688D02*
D03*
X09522522D02*
D03*
X01933481Y05518532D02*
D03*
X01776001D02*
D03*
X00772Y05108532D02*
D03*
X0061452D02*
D03*
X04160481Y05518532D02*
D03*
X04003001D02*
D03*
X02999001Y05108532D02*
D03*
X02841521D02*
D03*
X06387482Y05518532D02*
D03*
X06230002D02*
D03*
X05226002Y05108532D02*
D03*
X05068521D02*
D03*
X08614482Y05518532D02*
D03*
X08457002D02*
D03*
X07453002Y05108532D02*
D03*
X07295522D02*
D03*
X10841483Y05518532D02*
D03*
X10684003D02*
D03*
X09680003Y05108532D02*
D03*
X09522522D02*
D03*
X01933481Y07763376D02*
D03*
X01776001D02*
D03*
X00772Y07353376D02*
D03*
X0061452D02*
D03*
X04160481Y07763376D02*
D03*
X04003001D02*
D03*
X02999001Y07353376D02*
D03*
X02841521D02*
D03*
X06387482Y07763376D02*
D03*
X06230002D02*
D03*
X05226002Y07353376D02*
D03*
X05068521D02*
D03*
X08614482Y07763376D02*
D03*
X08457002D02*
D03*
X07453002Y07353376D02*
D03*
X07295522D02*
D03*
X10841483Y07763376D02*
D03*
X10684003D02*
D03*
X09680003Y07353376D02*
D03*
X09522522D02*
D03*
D27*
X00884Y00348773D02*
D03*
Y00214915D02*
D03*
X03111001Y00348773D02*
D03*
Y00214915D02*
D03*
X05338002Y00348773D02*
D03*
Y00214915D02*
D03*
X07565002Y00348773D02*
D03*
Y00214915D02*
D03*
X09792003Y00348773D02*
D03*
Y00214915D02*
D03*
X00884Y02593617D02*
D03*
Y02459759D02*
D03*
X03111001Y02593617D02*
D03*
Y02459759D02*
D03*
X05338002Y02593617D02*
D03*
Y02459759D02*
D03*
X07565002Y02593617D02*
D03*
Y02459759D02*
D03*
X09792003Y02593617D02*
D03*
Y02459759D02*
D03*
X00884Y04838461D02*
D03*
Y04704602D02*
D03*
X03111001Y04838461D02*
D03*
Y04704602D02*
D03*
X05338002Y04838461D02*
D03*
Y04704602D02*
D03*
X07565002Y04838461D02*
D03*
Y04704602D02*
D03*
X09792003Y04838461D02*
D03*
Y04704602D02*
D03*
X00884Y07083305D02*
D03*
Y06949446D02*
D03*
X03111001Y07083305D02*
D03*
Y06949446D02*
D03*
X05338002Y07083305D02*
D03*
Y06949446D02*
D03*
X07565002Y07083305D02*
D03*
Y06949446D02*
D03*
X09792003Y07083305D02*
D03*
Y06949446D02*
D03*
D28*
X00516Y01033584D02*
D03*
Y00876104D02*
D03*
X02743001Y01033584D02*
D03*
Y00876104D02*
D03*
X04970002Y01033584D02*
D03*
Y00876104D02*
D03*
X07197002Y01033584D02*
D03*
Y00876104D02*
D03*
X09424003Y01033584D02*
D03*
Y00876104D02*
D03*
X00516Y03278428D02*
D03*
Y03120948D02*
D03*
X02743001Y03278428D02*
D03*
Y03120948D02*
D03*
X04970002Y03278428D02*
D03*
Y03120948D02*
D03*
X07197002Y03278428D02*
D03*
Y03120948D02*
D03*
X09424003Y03278428D02*
D03*
Y03120948D02*
D03*
X00516Y05523272D02*
D03*
Y05365792D02*
D03*
X02743001Y05523272D02*
D03*
Y05365792D02*
D03*
X04970002Y05523272D02*
D03*
Y05365792D02*
D03*
X07197002Y05523272D02*
D03*
Y05365792D02*
D03*
X09424003Y05523272D02*
D03*
Y05365792D02*
D03*
X00516Y07768116D02*
D03*
Y07610635D02*
D03*
X02743001Y07768116D02*
D03*
Y07610635D02*
D03*
X04970002Y07768116D02*
D03*
Y07610635D02*
D03*
X07197002Y07768116D02*
D03*
Y07610635D02*
D03*
X09424003Y07768116D02*
D03*
Y07610635D02*
D03*
D29*
X00709991Y00903663D02*
D03*
Y01006025D02*
D03*
X02936991Y00903663D02*
D03*
Y01006025D02*
D03*
X05163992Y00903663D02*
D03*
Y01006025D02*
D03*
X07390992Y00903663D02*
D03*
Y01006025D02*
D03*
X09617993Y00903663D02*
D03*
Y01006025D02*
D03*
X00709991Y03148507D02*
D03*
Y03250869D02*
D03*
X02936991Y03148507D02*
D03*
Y03250869D02*
D03*
X05163992Y03148507D02*
D03*
Y03250869D02*
D03*
X07390992Y03148507D02*
D03*
Y03250869D02*
D03*
X09617993Y03148507D02*
D03*
Y03250869D02*
D03*
X00709991Y05393351D02*
D03*
Y05495713D02*
D03*
X02936991Y05393351D02*
D03*
Y05495713D02*
D03*
X05163992Y05393351D02*
D03*
Y05495713D02*
D03*
X07390992Y05393351D02*
D03*
Y05495713D02*
D03*
X09617993Y05393351D02*
D03*
Y05495713D02*
D03*
X00709991Y07638194D02*
D03*
Y07740557D02*
D03*
X02936991Y07638194D02*
D03*
Y07740557D02*
D03*
X05163992Y07638194D02*
D03*
Y07740557D02*
D03*
X07390992Y07638194D02*
D03*
Y07740557D02*
D03*
X09617993Y07638194D02*
D03*
Y07740557D02*
D03*
D30*
X0026Y01074143D02*
D03*
Y00861545D02*
D03*
X00415Y00442545D02*
D03*
Y00655143D02*
D03*
X02487001Y01074143D02*
D03*
Y00861545D02*
D03*
X02642001Y00442545D02*
D03*
Y00655143D02*
D03*
X04714002Y01074143D02*
D03*
Y00861545D02*
D03*
X04869002Y00442545D02*
D03*
Y00655143D02*
D03*
X06941002Y01074143D02*
D03*
Y00861545D02*
D03*
X07096002Y00442545D02*
D03*
Y00655143D02*
D03*
X09168003Y01074143D02*
D03*
Y00861545D02*
D03*
X09323003Y00442545D02*
D03*
Y00655143D02*
D03*
X0026Y03318987D02*
D03*
Y03106389D02*
D03*
X00415Y02687389D02*
D03*
Y02899987D02*
D03*
X02487001Y03318987D02*
D03*
Y03106389D02*
D03*
X02642001Y02687389D02*
D03*
Y02899987D02*
D03*
X04714002Y03318987D02*
D03*
Y03106389D02*
D03*
X04869002Y02687389D02*
D03*
Y02899987D02*
D03*
X06941002Y03318987D02*
D03*
Y03106389D02*
D03*
X07096002Y02687389D02*
D03*
Y02899987D02*
D03*
X09168003Y03318987D02*
D03*
Y03106389D02*
D03*
X09323003Y02687389D02*
D03*
Y02899987D02*
D03*
X0026Y05563831D02*
D03*
Y05351233D02*
D03*
X00415Y04932233D02*
D03*
Y05144831D02*
D03*
X02487001Y05563831D02*
D03*
Y05351233D02*
D03*
X02642001Y04932233D02*
D03*
Y05144831D02*
D03*
X04714002Y05563831D02*
D03*
Y05351233D02*
D03*
X04869002Y04932233D02*
D03*
Y05144831D02*
D03*
X06941002Y05563831D02*
D03*
Y05351233D02*
D03*
X07096002Y04932233D02*
D03*
Y05144831D02*
D03*
X09168003Y05563831D02*
D03*
Y05351233D02*
D03*
X09323003Y04932233D02*
D03*
Y05144831D02*
D03*
X0026Y07808675D02*
D03*
Y07596076D02*
D03*
X00415Y07177076D02*
D03*
Y07389675D02*
D03*
X02487001Y07808675D02*
D03*
Y07596076D02*
D03*
X02642001Y07177076D02*
D03*
Y07389675D02*
D03*
X04714002Y07808675D02*
D03*
Y07596076D02*
D03*
X04869002Y07177076D02*
D03*
Y07389675D02*
D03*
X06941002Y07808675D02*
D03*
Y07596076D02*
D03*
X07096002Y07177076D02*
D03*
Y07389675D02*
D03*
X09168003Y07808675D02*
D03*
Y07596076D02*
D03*
X09323003Y07177076D02*
D03*
Y07389675D02*
D03*
D32*
X02040001Y0127108D02*
D03*
X02140001D02*
D03*
Y01050608D02*
D03*
X02040001D02*
D03*
X04267001Y0127108D02*
D03*
X04367001D02*
D03*
Y01050608D02*
D03*
X04267001D02*
D03*
X06494002Y0127108D02*
D03*
X06594002D02*
D03*
Y01050608D02*
D03*
X06494002D02*
D03*
X08721002Y0127108D02*
D03*
X08821002D02*
D03*
Y01050608D02*
D03*
X08721002D02*
D03*
X10948003Y0127108D02*
D03*
X11048003D02*
D03*
Y01050608D02*
D03*
X10948003D02*
D03*
X02040001Y03515924D02*
D03*
X02140001D02*
D03*
Y03295452D02*
D03*
X02040001D02*
D03*
X04267001Y03515924D02*
D03*
X04367001D02*
D03*
Y03295452D02*
D03*
X04267001D02*
D03*
X06494002Y03515924D02*
D03*
X06594002D02*
D03*
Y03295452D02*
D03*
X06494002D02*
D03*
X08721002Y03515924D02*
D03*
X08821002D02*
D03*
Y03295452D02*
D03*
X08721002D02*
D03*
X10948003Y03515924D02*
D03*
X11048003D02*
D03*
Y03295452D02*
D03*
X10948003D02*
D03*
X02040001Y05760768D02*
D03*
X02140001D02*
D03*
Y05540296D02*
D03*
X02040001D02*
D03*
X04267001Y05760768D02*
D03*
X04367001D02*
D03*
Y05540296D02*
D03*
X04267001D02*
D03*
X06494002Y05760768D02*
D03*
X06594002D02*
D03*
Y05540296D02*
D03*
X06494002D02*
D03*
X08721002Y05760768D02*
D03*
X08821002D02*
D03*
Y05540296D02*
D03*
X08721002D02*
D03*
X10948003Y05760768D02*
D03*
X11048003D02*
D03*
Y05540296D02*
D03*
X10948003D02*
D03*
X02040001Y08005612D02*
D03*
X02140001D02*
D03*
Y07785139D02*
D03*
X02040001D02*
D03*
X04267001Y08005612D02*
D03*
X04367001D02*
D03*
Y07785139D02*
D03*
X04267001D02*
D03*
X06494002Y08005612D02*
D03*
X06594002D02*
D03*
Y07785139D02*
D03*
X06494002D02*
D03*
X08721002Y08005612D02*
D03*
X08821002D02*
D03*
Y07785139D02*
D03*
X08721002D02*
D03*
X10948003Y08005612D02*
D03*
X11048003D02*
D03*
Y07785139D02*
D03*
X10948003D02*
D03*
M02*
