G04*
G04 #@! TF.GenerationSoftware,Altium Limited,Altium Designer,22.11.1 (43)*
G04*
G04 Layer_Color=16711935*
%FSTAX26Y26*%
%MOIN*%
G70*
G04*
G04 #@! TF.SameCoordinates,AA770BCE-04E6-4DAC-A3A7-18814E9E4FF3*
G04*
G04*
G04 #@! TF.FilePolarity,Positive*
G04*
G01*
G75*
%ADD65C,0.010000*%
%ADD113R,0.012842X0.017305*%
D65*
X11332017Y0898029D02*
G03*
X11132568Y09177147I-00199121J-00002276D01*
G01*
X-00197781Y-00000001D02*
G03*
X00003624Y-00196852I00199128J00002276D01*
G01*
X04974998Y09567636D02*
G03*
X04959998Y09587636I-000175J000025D01*
G01*
Y09587636D02*
G03*
X04934998Y09567636I-000025J-000225D01*
G01*
X04934998D02*
G03*
X04973506Y09549128I000225J-000025D01*
G01*
X04994998Y09567636D02*
G03*
X05033506Y09549128I000225J-000025D01*
G01*
X05019998Y09587636D02*
G03*
X04994998Y09567636I-000025J-000225D01*
G01*
X05034998D02*
G03*
X05019998Y09587636I-000175J000025D01*
G01*
X05059998Y09562637D02*
G03*
X05059998Y095723I00020168J00004832D01*
G01*
X05216856Y09574268D02*
G03*
X05216856Y09574268I-0003J0D01*
G01*
X05244998Y09552636D02*
G03*
X05279998Y09560565I00015J00015D01*
G01*
X05309998Y09547636D02*
G03*
X05324998Y09542636I0001J00005D01*
G01*
X05506463Y09529101D02*
G03*
X05509998Y09537636I-00008536J00008536D01*
G01*
X05490856Y09522636D02*
G03*
X05506463Y09529101I0J00022071D01*
G01*
X05444998Y09587636D02*
G03*
X05434998Y09577636I0J-0001D01*
G01*
X05464998D02*
G03*
X05454998Y09587636I-0001J0D01*
G01*
X05464998Y09542636D02*
G03*
X05469998Y09537636I00005J0D01*
G01*
X05429998Y09552636D02*
G03*
X05439998Y09542636I0001J0D01*
G01*
Y09562636D02*
G03*
X05429998Y09552636I0J-0001D01*
G01*
X05449998Y09562636D02*
G03*
X05464998Y09577636I0J00015D01*
G01*
X05446672Y09542636D02*
G03*
X05462498Y09558463I0J00015826D01*
G01*
X05587369Y09566447D02*
G03*
X05572369Y09586447I-000175J000025D01*
G01*
Y09586447D02*
G03*
X05547369Y09566447I-000025J-000225D01*
G01*
X05547369D02*
G03*
X05585877Y09547939I000225J-000025D01*
G01*
X05632985Y09585162D02*
G03*
X05614998Y0957661I-0000696J-00008552D01*
G01*
X06314998Y09567636D02*
G03*
X06299998Y09582636I-00015J0D01*
G01*
X06279998Y09542636D02*
G03*
X06299998Y09522636I0002J0D01*
G01*
D02*
G03*
X06314998Y09537636I0J00015D01*
G01*
X06299998Y09582636D02*
G03*
X06279998Y09562636I0J-0002D01*
G01*
X06424998Y09542636D02*
G03*
X06444998Y09522636I0002J0D01*
G01*
D02*
G03*
X06459998Y09537636I0J00015D01*
G01*
X06444998Y09582636D02*
G03*
X06424998Y09562636I0J-0002D01*
G01*
X06459998Y09567636D02*
G03*
X06444998Y09582636I-00015J0D01*
G01*
X1113501Y-00196513D02*
G03*
X11332721Y00000321I00004122J00193572D01*
G01*
X-00007454Y09176852D02*
G03*
X-00197782Y08980002I00003261J-00193589D01*
G01*
X10551006Y02244848D02*
X11135053Y02244842D01*
X11135006Y01869848D02*
X11135053Y02244842D01*
X10980006Y02152848D02*
X11135006Y01869848D01*
X10551006Y02152848D02*
X10980006D01*
X10551006D02*
Y02244848D01*
X10551005Y04489691D02*
X11135052Y04489685D01*
X11135005Y04114691D02*
X11135052Y04489685D01*
X10980005Y04397691D02*
X11135005Y04114691D01*
X10551005Y04397691D02*
X10980005D01*
X10551005D02*
Y04489691D01*
X10551004Y06734533D02*
X1113505Y06734528D01*
X11135004Y06359533D02*
X1113505Y06734528D01*
X10980004Y06642533D02*
X11135004Y06359533D01*
X10551004Y06642533D02*
X10980004D01*
X10551004D02*
Y06734533D01*
X10551003Y08887376D02*
Y08979376D01*
Y08887376D02*
X10980003D01*
X11135002Y08604376D01*
X11135049Y0897937D01*
X10551003Y08979376D02*
X11135049Y0897937D01*
X08324022Y08979376D02*
X09476022D01*
Y08887376D02*
Y08979376D01*
X09047163Y08887376D02*
X09476022D01*
X08908022Y08604376D02*
X09047163Y08887376D01*
X08753022D02*
X08908022Y08604376D01*
X08324022Y08887376D02*
X08753022D01*
X08324022D02*
Y08979376D01*
X06097011Y08979376D02*
X07249012D01*
Y08887376D02*
Y08979376D01*
X06820153Y08887376D02*
X07249012D01*
X06681011Y08604376D02*
X06820153Y08887376D01*
X06526011D02*
X06681011Y08604376D01*
X06097011Y08887376D02*
X06526011D01*
X06097011D02*
Y08979376D01*
X03870001Y08979376D02*
X05022002D01*
Y08887376D02*
Y08979376D01*
X04593142Y08887376D02*
X05022002D01*
X04454001Y08604376D02*
X04593142Y08887376D01*
X04299001D02*
X04454001Y08604376D01*
X03870001Y08887376D02*
X04299001D01*
X03870001D02*
Y08979376D01*
X01643001Y08887376D02*
Y08979376D01*
Y08887376D02*
X02072001D01*
X02227Y08604376D01*
X02366142Y08887376D01*
X02795001D01*
Y08979376D01*
X01643001D02*
X02795001D01*
X-00000001Y07023372D02*
X00307999D01*
Y06901592D02*
Y07023372D01*
Y06901592D02*
X00656999D01*
Y06803151D02*
Y06901592D01*
X00307999Y06803151D02*
X00656999D01*
X00307999Y06734528D02*
Y06803151D01*
Y06734528D02*
X00567999D01*
Y06642528D02*
Y06734528D01*
X0013914Y06642528D02*
X00567999D01*
X-00000001Y06359528D02*
X0013914Y06642528D01*
X-00000001Y06359528D02*
X-00000001Y07023372D01*
X-00000001Y0477853D02*
X00307999D01*
Y0465675D02*
Y0477853D01*
Y0465675D02*
X00656999D01*
Y04558309D02*
Y0465675D01*
X00307999Y04558309D02*
X00656999D01*
X00307999Y04489686D02*
Y04558309D01*
Y04489686D02*
X00567999D01*
Y04397686D02*
Y04489686D01*
X0013914Y04397686D02*
X00567999D01*
X-00000002Y04114686D02*
X0013914Y04397686D01*
X-00000002Y04114686D02*
X-00000001Y0477853D01*
X0Y01869844D02*
X00000001Y02533688D01*
X0Y01869844D02*
X00139141Y02152844D01*
X00568D01*
Y02244844D01*
X00308D02*
X00568D01*
X00308D02*
Y02313467D01*
X00657D01*
Y02411908D01*
X00308D02*
X00657D01*
X00308D02*
Y02533688D01*
X00000001D02*
X00308D01*
X08324022Y02244844D02*
X08908031Y02244842D01*
X08908022Y02533688D02*
X08908031Y02244842D01*
X08908022Y02533688D02*
X09216022D01*
Y02411908D02*
Y02533688D01*
Y02411908D02*
X09565022D01*
Y02313467D02*
Y02411908D01*
X09216022Y02313467D02*
X09565022D01*
X09216022Y02244844D02*
Y02313467D01*
Y02244844D02*
X09476022D01*
Y02152844D02*
Y02244844D01*
X09047163Y02152844D02*
X09476022D01*
X08908022Y01869844D02*
X09047163Y02152844D01*
X08753022D02*
X08908022Y01869844D01*
X08324022Y02152844D02*
X08753022D01*
X08324022D02*
Y02244844D01*
X08324021Y04489687D02*
X08908029Y04489685D01*
X08908021Y04778531D02*
X08908029Y04489685D01*
X08908021Y04778531D02*
X09216021D01*
Y04656751D02*
Y04778531D01*
Y04656751D02*
X09565021D01*
Y0455831D02*
Y04656751D01*
X09216021Y0455831D02*
X09565021D01*
X09216021Y04489687D02*
Y0455831D01*
Y04489687D02*
X09476021D01*
Y04397687D02*
Y04489687D01*
X09047162Y04397687D02*
X09476021D01*
X08908021Y04114687D02*
X09047162Y04397687D01*
X08753021D02*
X08908021Y04114687D01*
X08324021Y04397687D02*
X08753021D01*
X08324021D02*
Y04489687D01*
X08324019Y06734529D02*
X08908028Y06734527D01*
X0890802Y07023373D02*
X08908028Y06734527D01*
X0890802Y07023373D02*
X0921602D01*
Y06901593D02*
Y07023373D01*
Y06901593D02*
X0956502D01*
Y06803152D02*
Y06901593D01*
X0921602Y06803152D02*
X0956502D01*
X0921602Y06734529D02*
Y06803152D01*
Y06734529D02*
X0947602D01*
Y06642529D02*
Y06734529D01*
X09047161Y06642529D02*
X0947602D01*
X08908019Y06359529D02*
X09047161Y06642529D01*
X08753019D02*
X08908019Y06359529D01*
X08324019Y06642529D02*
X08753019D01*
X08324019D02*
Y06734529D01*
X06097011Y02244844D02*
X0668102Y02244842D01*
X06681012Y02533688D02*
X0668102Y02244842D01*
X06681012Y02533688D02*
X06989012D01*
Y02411908D02*
Y02533688D01*
Y02411908D02*
X07338012D01*
Y02313467D02*
Y02411908D01*
X06989012Y02313467D02*
X07338012D01*
X06989012Y02244844D02*
Y02313467D01*
Y02244844D02*
X07249012D01*
Y02152844D02*
Y02244844D01*
X06820153Y02152844D02*
X07249012D01*
X06681011Y01869844D02*
X06820153Y02152844D01*
X06526011D02*
X06681011Y01869844D01*
X06097011Y02152844D02*
X06526011D01*
X06097011D02*
Y02244844D01*
X0609701Y04489686D02*
X06681019Y04489685D01*
X06681011Y0477853D02*
X06681019Y04489685D01*
X06681011Y0477853D02*
X06989011D01*
Y0465675D02*
Y0477853D01*
Y0465675D02*
X07338011D01*
Y04558309D02*
Y0465675D01*
X06989011Y04558309D02*
X07338011D01*
X06989011Y04489686D02*
Y04558309D01*
Y04489686D02*
X07249011D01*
Y04397686D02*
Y04489686D01*
X06820152Y04397686D02*
X07249011D01*
X0668101Y04114686D02*
X06820152Y04397686D01*
X0652601D02*
X0668101Y04114686D01*
X0609701Y04397686D02*
X0652601D01*
X0609701D02*
Y04489686D01*
X06097009Y06734529D02*
X06681018Y06734527D01*
X0668101Y07023373D02*
X06681018Y06734527D01*
X0668101Y07023373D02*
X0698901D01*
Y06901593D02*
Y07023373D01*
Y06901593D02*
X0733801D01*
Y06803151D02*
Y06901593D01*
X0698901Y06803151D02*
X0733801D01*
X0698901Y06734529D02*
Y06803151D01*
Y06734529D02*
X0724901D01*
Y06642529D02*
Y06734529D01*
X0682015Y06642529D02*
X0724901D01*
X06681009Y06359529D02*
X0682015Y06642529D01*
X06526009D02*
X06681009Y06359529D01*
X06097009Y06642529D02*
X06526009D01*
X06097009D02*
Y06734529D01*
X03870011Y02244844D02*
X0445402Y02244842D01*
X04454011Y02533688D02*
X0445402Y02244842D01*
X04454011Y02533688D02*
X04762011D01*
Y02411908D02*
Y02533688D01*
Y02411908D02*
X05111011D01*
Y02313467D02*
Y02411908D01*
X04762011Y02313467D02*
X05111011D01*
X04762011Y02244844D02*
Y02313467D01*
Y02244844D02*
X05022011D01*
Y02152844D02*
Y02244844D01*
X04593152Y02152844D02*
X05022011D01*
X04454011Y01869844D02*
X04593152Y02152844D01*
X04299011D02*
X04454011Y01869844D01*
X03870011Y02152844D02*
X04299011D01*
X03870011D02*
Y02244844D01*
X0387001Y04489686D02*
X04454018Y04489685D01*
X0445401Y0477853D02*
X04454018Y04489685D01*
X0445401Y0477853D02*
X0476201D01*
Y0465675D02*
Y0477853D01*
Y0465675D02*
X0511101D01*
Y04558309D02*
Y0465675D01*
X0476201Y04558309D02*
X0511101D01*
X0476201Y04489686D02*
Y04558309D01*
Y04489686D02*
X0502201D01*
Y04397686D02*
Y04489686D01*
X04593151Y04397686D02*
X0502201D01*
X0445401Y04114686D02*
X04593151Y04397686D01*
X0429901D02*
X0445401Y04114686D01*
X0387001Y04397686D02*
X0429901D01*
X0387001D02*
Y04489686D01*
X03870008Y06734529D02*
X04454017Y06734527D01*
X04454009Y07023372D02*
X04454017Y06734527D01*
X04454009Y07023372D02*
X04762009D01*
Y06901592D02*
Y07023372D01*
Y06901592D02*
X05111009D01*
Y06803151D02*
Y06901592D01*
X04762009Y06803151D02*
X05111009D01*
X04762009Y06734529D02*
Y06803151D01*
Y06734529D02*
X05022009D01*
Y06642529D02*
Y06734529D01*
X0459315Y06642529D02*
X05022009D01*
X04454008Y06359529D02*
X0459315Y06642529D01*
X04299008D02*
X04454008Y06359529D01*
X03870008Y06642529D02*
X04299008D01*
X03870008D02*
Y06734529D01*
X01642998Y06734528D02*
X02227006Y06734527D01*
X02226998Y07023372D02*
X02227006Y06734527D01*
X02226998Y07023372D02*
X02534998D01*
Y06901592D02*
Y07023372D01*
Y06901592D02*
X02883998D01*
Y06803151D02*
Y06901592D01*
X02534998Y06803151D02*
X02883998D01*
X02534998Y06734528D02*
Y06803151D01*
Y06734528D02*
X02794998D01*
Y06642528D02*
Y06734528D01*
X02366139Y06642528D02*
X02794998D01*
X02226997Y06359528D02*
X02366139Y06642528D01*
X02071998D02*
X02226997Y06359528D01*
X01642998Y06642528D02*
X02071998D01*
X01642998D02*
Y06734528D01*
X01642999Y04489686D02*
X02227008Y04489685D01*
X02227Y0477853D02*
X02227008Y04489685D01*
X02227Y0477853D02*
X02534999D01*
Y0465675D02*
Y0477853D01*
Y0465675D02*
X02883999D01*
Y04558309D02*
Y0465675D01*
X02534999Y04558309D02*
X02883999D01*
X02534999Y04489686D02*
Y04558309D01*
Y04489686D02*
X02794999D01*
Y04397686D02*
Y04489686D01*
X0236614Y04397686D02*
X02794999D01*
X02226999Y04114686D02*
X0236614Y04397686D01*
X02071999D02*
X02226999Y04114686D01*
X01642999Y04397686D02*
X02071999D01*
X01642999D02*
Y04489686D01*
X01643001Y02152844D02*
Y02244844D01*
Y02152844D02*
X02072001D01*
X02227Y01869844D01*
X02366142Y02152844D01*
X02795001D01*
Y02244844D01*
X02535001D02*
X02795001D01*
X02535001D02*
Y02313467D01*
X02884001D01*
Y02411908D01*
X02535001D02*
X02884001D01*
X02535001D02*
Y02533688D01*
X02227001D02*
X02535001D01*
X02227001D02*
X02227009Y02244842D01*
X01643001Y02244844D02*
X02227009Y02244842D01*
X-00000006Y08604371D02*
X-00000004D01*
X-00000006D02*
Y08979369D01*
X00567996D01*
Y08979371D01*
Y08887371D02*
Y08979371D01*
X00139137Y08887371D02*
X00567996D01*
X-00000006Y08604371D02*
X00139137Y08887371D01*
X08908032Y0D02*
Y00288844D01*
X08908032D01*
X09216032D01*
Y00167064D02*
Y00288844D01*
Y00167064D02*
X09565032D01*
Y00068623D02*
Y00167064D01*
X09216032Y00068623D02*
X09565032D01*
X09216032Y0D02*
Y00068623D01*
X08908032Y0D02*
X09216032D01*
X06681021D02*
Y00288844D01*
X06681022D01*
X06989022D01*
Y00167064D02*
Y00288844D01*
Y00167064D02*
X07338022D01*
Y00068623D02*
Y00167064D01*
X06989022Y00068623D02*
X07338022D01*
X06989022Y0D02*
Y00068623D01*
X06681021Y0D02*
X06989022D01*
X04454011D02*
X04762011D01*
Y00068623D01*
X05111011D01*
Y00167064D01*
X04762011D02*
X05111011D01*
X04762011D02*
Y00288844D01*
X04454011D02*
X04762011D01*
X04454011D02*
X04454011D01*
X04454011Y0D02*
Y00288844D01*
X0222701Y0D02*
X02535011D01*
Y00068623D01*
X02884011D01*
Y00167064D01*
X02535011D02*
X02884011D01*
X02535011D02*
Y00288844D01*
X02227011D02*
X02535011D01*
X0222701D02*
X02227011D01*
X0222701Y0D02*
Y00288844D01*
X0Y0D02*
Y00288844D01*
X00000001D01*
X00308D01*
Y00167064D02*
Y00288844D01*
Y00167064D02*
X00657D01*
Y00068623D02*
Y00167064D01*
X00308Y00068623D02*
X00657D01*
X00308Y0D02*
Y00068623D01*
X0Y0D02*
X00308D01*
X11332253Y0898029D02*
X11332265Y00000321D01*
X-00007454Y09176854D02*
X1113505Y09176856D01*
X00003624Y-00196852D02*
X1113501D01*
X05924998Y09554944D02*
X06189998D01*
Y09574944D01*
Y09534958D02*
Y09574944D01*
Y09534958D02*
X06209998Y09554944D01*
X06189998Y09574944D02*
X06209998Y09554944D01*
X04864998Y09542636D02*
Y09607636D01*
Y09542636D02*
Y09563316D01*
X04909998Y09607636D01*
X04887498Y09585476D02*
X04909998Y09607636D01*
X04887498Y09585476D02*
X04914998Y09542636D01*
X05119998Y09567636D02*
X05139998D01*
X04934998D02*
X04974998D01*
X04994998D02*
X05034998D01*
X05059998Y09522636D02*
Y09587636D01*
X05244998Y09552636D02*
Y09587636D01*
X05279998Y09542636D02*
Y09587636D01*
X05299998D02*
X05319998D01*
X05309998Y09547636D02*
Y09602636D01*
X05374998Y09542636D02*
Y09607636D01*
Y09542636D02*
X05409998D01*
X05489998Y09587636D02*
X05509998Y09537636D01*
X05529998Y09587636D01*
X05444998D02*
X05454998D01*
X05464998Y09542636D02*
Y09577636D01*
X05439998Y09542636D02*
X05446672D01*
X05439998Y09562636D02*
X05449998D01*
X05547369Y09566447D02*
X05587369D01*
X05614998Y09542636D02*
Y09587636D01*
X06279998Y09542636D02*
Y09562636D01*
X06354998Y09522636D02*
Y09587636D01*
X06394998Y09522636D01*
Y09587636D01*
X06424998Y09542636D02*
Y09562636D01*
X-00197786Y08980002D02*
X-00197781Y00000001D01*
X04759998Y09394944D02*
Y09712636D01*
X06651909Y09394944D02*
Y09712636D01*
X04759998D02*
X06651909D01*
X04759998Y09394944D02*
X06651909D01*
D113*
X06196419Y09556291D02*
D03*
M02*
