G04*
G04 #@! TF.GenerationSoftware,Altium Limited,Altium Designer,22.11.1 (43)*
G04*
G04 Layer_Color=255*
%FSTAX26Y26*%
%MOIN*%
G70*
G04*
G04 #@! TF.SameCoordinates,AA770BCE-04E6-4DAC-A3A7-18814E9E4FF3*
G04*
G04*
G04 #@! TF.FilePolarity,Positive*
G04*
G01*
G75*
%ADD11C,0.042047*%
%ADD47O,0.078740X0.094488*%
%ADD48R,0.098425X0.118110*%
%ADD49O,0.098425X0.118110*%
%ADD50C,0.078740*%
%ADD51R,0.070866X0.082677*%
G04:AMPARAMS|DCode=52|XSize=70.866mil|YSize=82.677mil|CornerRadius=17.716mil|HoleSize=0mil|Usage=FLASHONLY|Rotation=180.000|XOffset=0mil|YOffset=0mil|HoleType=Round|Shape=RoundedRectangle|*
%AMROUNDEDRECTD52*
21,1,0.070866,0.047244,0,0,180.0*
21,1,0.035433,0.082677,0,0,180.0*
1,1,0.035433,-0.017717,0.023622*
1,1,0.035433,0.017717,0.023622*
1,1,0.035433,0.017717,-0.023622*
1,1,0.035433,-0.017717,-0.023622*
%
%ADD52ROUNDEDRECTD52*%
G04:AMPARAMS|DCode=53|XSize=70.866mil|YSize=82.677mil|CornerRadius=17.716mil|HoleSize=0mil|Usage=FLASHONLY|Rotation=90.000|XOffset=0mil|YOffset=0mil|HoleType=Round|Shape=RoundedRectangle|*
%AMROUNDEDRECTD53*
21,1,0.070866,0.047244,0,0,90.0*
21,1,0.035433,0.082677,0,0,90.0*
1,1,0.035433,0.023622,0.017717*
1,1,0.035433,0.023622,-0.017717*
1,1,0.035433,-0.023622,-0.017717*
1,1,0.035433,-0.023622,0.017717*
%
%ADD53ROUNDEDRECTD53*%
%ADD54R,0.082677X0.070866*%
%ADD55R,0.472441X0.125984*%
%ADD56R,0.452756X0.137795*%
%ADD57R,0.472441X0.157480*%
D11*
X03225279Y09077735D02*
D03*
X07930279Y09077735D02*
D03*
X00393512Y-00101861D02*
D03*
X-00098483Y003937D02*
D03*
X-00099298Y08389491D02*
D03*
X10743266Y-00101861D02*
D03*
X11233266Y06937928D02*
D03*
X11233266Y01977928D02*
D03*
D47*
X0045Y01264844D02*
D03*
X0065D02*
D03*
X0025D02*
D03*
X02677001D02*
D03*
X02877001D02*
D03*
X02477001D02*
D03*
X04904002D02*
D03*
X05104002D02*
D03*
X04704002D02*
D03*
X07131002D02*
D03*
X07331002D02*
D03*
X06931002D02*
D03*
X09358003D02*
D03*
X09558003D02*
D03*
X09158003D02*
D03*
X0045Y03509688D02*
D03*
X0065D02*
D03*
X0025D02*
D03*
X02677001D02*
D03*
X02877001D02*
D03*
X02477001D02*
D03*
X04904002D02*
D03*
X05104002D02*
D03*
X04704002D02*
D03*
X07131002D02*
D03*
X07331002D02*
D03*
X06931002D02*
D03*
X09358003D02*
D03*
X09558003D02*
D03*
X09158003D02*
D03*
X0045Y05754532D02*
D03*
X0065D02*
D03*
X0025D02*
D03*
X02677001D02*
D03*
X02877001D02*
D03*
X02477001D02*
D03*
X04904002D02*
D03*
X05104002D02*
D03*
X04704002D02*
D03*
X07131002D02*
D03*
X07331002D02*
D03*
X06931002D02*
D03*
X09358003D02*
D03*
X09558003D02*
D03*
X09158003D02*
D03*
X0045Y07999376D02*
D03*
X0065D02*
D03*
X0025D02*
D03*
X02677001D02*
D03*
X02877001D02*
D03*
X02477001D02*
D03*
X04904002D02*
D03*
X05104002D02*
D03*
X04704002D02*
D03*
X07131002D02*
D03*
X07331002D02*
D03*
X06931002D02*
D03*
X09358003D02*
D03*
X09558003D02*
D03*
X09158003D02*
D03*
D48*
X00116001Y01605844D02*
D03*
X01685783Y0160766D02*
D03*
X02343001Y01605844D02*
D03*
X03912784Y0160766D02*
D03*
X04570002Y01605844D02*
D03*
X06139784Y0160766D02*
D03*
X06797002Y01605844D02*
D03*
X08366785Y0160766D02*
D03*
X09024003Y01605844D02*
D03*
X10593785Y0160766D02*
D03*
X00116001Y03850688D02*
D03*
X01685783Y03852504D02*
D03*
X02343001Y03850688D02*
D03*
X03912784Y03852504D02*
D03*
X04570002Y03850688D02*
D03*
X06139784Y03852504D02*
D03*
X06797002Y03850688D02*
D03*
X08366785Y03852504D02*
D03*
X09024003Y03850688D02*
D03*
X10593785Y03852504D02*
D03*
X00116001Y06095532D02*
D03*
X01685783Y06097348D02*
D03*
X02343001Y06095532D02*
D03*
X03912784Y06097348D02*
D03*
X04570002Y06095532D02*
D03*
X06139784Y06097348D02*
D03*
X06797002Y06095532D02*
D03*
X08366785Y06097348D02*
D03*
X09024003Y06095532D02*
D03*
X10593785Y06097348D02*
D03*
X00116001Y08340376D02*
D03*
X01685783Y08342192D02*
D03*
X02343001Y08340376D02*
D03*
X03912784Y08342192D02*
D03*
X04570002Y08340376D02*
D03*
X06139784Y08342192D02*
D03*
X06797002Y08340376D02*
D03*
X08366785Y08342192D02*
D03*
X09024003Y08340376D02*
D03*
X10593785Y08342192D02*
D03*
D49*
X00316001Y01605844D02*
D03*
X00516001D02*
D03*
X02085783Y0160766D02*
D03*
X01885783D02*
D03*
X02543001Y01605844D02*
D03*
X02743001D02*
D03*
X04312784Y0160766D02*
D03*
X04112784D02*
D03*
X04770002Y01605844D02*
D03*
X04970002D02*
D03*
X06539784Y0160766D02*
D03*
X06339784D02*
D03*
X06997002Y01605844D02*
D03*
X07197002D02*
D03*
X08766785Y0160766D02*
D03*
X08566785D02*
D03*
X09224003Y01605844D02*
D03*
X09424003D02*
D03*
X10993785Y0160766D02*
D03*
X10793785D02*
D03*
X00316001Y03850688D02*
D03*
X00516001D02*
D03*
X02085783Y03852504D02*
D03*
X01885783D02*
D03*
X02543001Y03850688D02*
D03*
X02743001D02*
D03*
X04312784Y03852504D02*
D03*
X04112784D02*
D03*
X04770002Y03850688D02*
D03*
X04970002D02*
D03*
X06539784Y03852504D02*
D03*
X06339784D02*
D03*
X06997002Y03850688D02*
D03*
X07197002D02*
D03*
X08766785Y03852504D02*
D03*
X08566785D02*
D03*
X09224003Y03850688D02*
D03*
X09424003D02*
D03*
X10993785Y03852504D02*
D03*
X10793785D02*
D03*
X00316001Y06095532D02*
D03*
X00516001D02*
D03*
X02085783Y06097348D02*
D03*
X01885783D02*
D03*
X02543001Y06095532D02*
D03*
X02743001D02*
D03*
X04312784Y06097348D02*
D03*
X04112784D02*
D03*
X04770002Y06095532D02*
D03*
X04970002D02*
D03*
X06539784Y06097348D02*
D03*
X06339784D02*
D03*
X06997002Y06095532D02*
D03*
X07197002D02*
D03*
X08766785Y06097348D02*
D03*
X08566785D02*
D03*
X09224003Y06095532D02*
D03*
X09424003D02*
D03*
X10993785Y06097348D02*
D03*
X10793785D02*
D03*
X00316001Y08340376D02*
D03*
X00516001D02*
D03*
X02085783Y08342192D02*
D03*
X01885783D02*
D03*
X02543001Y08340376D02*
D03*
X02743001D02*
D03*
X04312784Y08342192D02*
D03*
X04112784D02*
D03*
X04770002Y08340376D02*
D03*
X04970002D02*
D03*
X06539784Y08342192D02*
D03*
X06339784D02*
D03*
X06997002Y08340376D02*
D03*
X07197002D02*
D03*
X08766785Y08342192D02*
D03*
X08566785D02*
D03*
X09224003Y08340376D02*
D03*
X09424003D02*
D03*
X10993785Y08342192D02*
D03*
X10793785D02*
D03*
D50*
X01206501Y01163344D02*
D03*
X01061501D02*
D03*
Y01018344D02*
D03*
X03433501Y01163344D02*
D03*
X03288501D02*
D03*
Y01018344D02*
D03*
X05660502Y01163344D02*
D03*
X05515502D02*
D03*
Y01018344D02*
D03*
X07887502Y01163344D02*
D03*
X07742502D02*
D03*
Y01018344D02*
D03*
X10114503Y01163344D02*
D03*
X09969503D02*
D03*
Y01018344D02*
D03*
X01206501Y03408188D02*
D03*
X01061501D02*
D03*
Y03263188D02*
D03*
X03433501Y03408188D02*
D03*
X03288501D02*
D03*
Y03263188D02*
D03*
X05660502Y03408188D02*
D03*
X05515502D02*
D03*
Y03263188D02*
D03*
X07887502Y03408188D02*
D03*
X07742502D02*
D03*
Y03263188D02*
D03*
X10114503Y03408188D02*
D03*
X09969503D02*
D03*
Y03263188D02*
D03*
X01206501Y05653032D02*
D03*
X01061501D02*
D03*
Y05508032D02*
D03*
X03433501Y05653032D02*
D03*
X03288501D02*
D03*
Y05508032D02*
D03*
X05660502Y05653032D02*
D03*
X05515502D02*
D03*
Y05508032D02*
D03*
X07887502Y05653032D02*
D03*
X07742502D02*
D03*
Y05508032D02*
D03*
X10114503Y05653032D02*
D03*
X09969503D02*
D03*
Y05508032D02*
D03*
X01206501Y07897876D02*
D03*
X01061501D02*
D03*
Y07752876D02*
D03*
X03433501Y07897876D02*
D03*
X03288501D02*
D03*
Y07752876D02*
D03*
X05660502Y07897876D02*
D03*
X05515502D02*
D03*
Y07752876D02*
D03*
X07887502Y07897876D02*
D03*
X07742502D02*
D03*
Y07752876D02*
D03*
X10114503Y07897876D02*
D03*
X09969503D02*
D03*
Y07752876D02*
D03*
D51*
X01883001Y01274844D02*
D03*
X04110001D02*
D03*
X06337002D02*
D03*
X08564002D02*
D03*
X10791003D02*
D03*
X01883001Y03519688D02*
D03*
X04110001D02*
D03*
X06337002D02*
D03*
X08564002D02*
D03*
X10791003D02*
D03*
X01883001Y05764532D02*
D03*
X04110001D02*
D03*
X06337002D02*
D03*
X08564002D02*
D03*
X10791003D02*
D03*
X01883001Y08009376D02*
D03*
X04110001D02*
D03*
X06337002D02*
D03*
X08564002D02*
D03*
X10791003D02*
D03*
D52*
X01783001Y01274844D02*
D03*
X01683001D02*
D03*
X04010001D02*
D03*
X03910001D02*
D03*
X06237002D02*
D03*
X06137002D02*
D03*
X08464002D02*
D03*
X08364002D02*
D03*
X10691003D02*
D03*
X10591003D02*
D03*
X01783001Y03519688D02*
D03*
X01683001D02*
D03*
X04010001D02*
D03*
X03910001D02*
D03*
X06237002D02*
D03*
X06137002D02*
D03*
X08464002D02*
D03*
X08364002D02*
D03*
X10691003D02*
D03*
X10591003D02*
D03*
X01783001Y05764532D02*
D03*
X01683001D02*
D03*
X04010001D02*
D03*
X03910001D02*
D03*
X06237002D02*
D03*
X06137002D02*
D03*
X08464002D02*
D03*
X08364002D02*
D03*
X10691003D02*
D03*
X10591003D02*
D03*
X01783001Y08009376D02*
D03*
X01683001D02*
D03*
X04010001D02*
D03*
X03910001D02*
D03*
X06237002D02*
D03*
X06137002D02*
D03*
X08464002D02*
D03*
X08364002D02*
D03*
X10691003D02*
D03*
X10591003D02*
D03*
D53*
X01416001Y02061844D02*
D03*
X03643001D02*
D03*
X05870002D02*
D03*
X08097002D02*
D03*
X10324003D02*
D03*
X01416001Y04306688D02*
D03*
X03643001D02*
D03*
X05870002D02*
D03*
X08097002D02*
D03*
X10324003D02*
D03*
X01416001Y06551532D02*
D03*
X03643001D02*
D03*
X05870002D02*
D03*
X08097002D02*
D03*
X10324003D02*
D03*
X01416001Y08796376D02*
D03*
X03643001D02*
D03*
X05870002D02*
D03*
X08097002D02*
D03*
X10324003D02*
D03*
D54*
X01416001Y01961844D02*
D03*
X03643001D02*
D03*
X05870002D02*
D03*
X08097002D02*
D03*
X10324003D02*
D03*
X01416001Y04206688D02*
D03*
X03643001D02*
D03*
X05870002D02*
D03*
X08097002D02*
D03*
X10324003D02*
D03*
X01416001Y06451532D02*
D03*
X03643001D02*
D03*
X05870002D02*
D03*
X08097002D02*
D03*
X10324003D02*
D03*
X01416001Y08696376D02*
D03*
X03643001D02*
D03*
X05870002D02*
D03*
X08097002D02*
D03*
X10324003D02*
D03*
D55*
X00421Y02064844D02*
D03*
X01792001Y02062844D02*
D03*
X02648001Y02064844D02*
D03*
X04019001Y02062844D02*
D03*
X04875002Y02064844D02*
D03*
X06246002Y02062844D02*
D03*
X07102002Y02064844D02*
D03*
X08473002Y02062844D02*
D03*
X09329003Y02064844D02*
D03*
X10700003Y02062844D02*
D03*
X00421Y04309688D02*
D03*
X01792001Y04307688D02*
D03*
X02648001Y04309688D02*
D03*
X04019001Y04307688D02*
D03*
X04875002Y04309688D02*
D03*
X06246002Y04307688D02*
D03*
X07102002Y04309688D02*
D03*
X08473002Y04307688D02*
D03*
X09329003Y04309688D02*
D03*
X10700003Y04307688D02*
D03*
X00421Y06554532D02*
D03*
X01792001Y06552532D02*
D03*
X02648001Y06554532D02*
D03*
X04019001Y06552532D02*
D03*
X04875002Y06554532D02*
D03*
X06246002Y06552532D02*
D03*
X07102002Y06554532D02*
D03*
X08473002Y06552532D02*
D03*
X09329003Y06554532D02*
D03*
X10700003Y06552532D02*
D03*
X00421Y08799376D02*
D03*
X01792001Y08797376D02*
D03*
X02648001Y08799376D02*
D03*
X04019001Y08797376D02*
D03*
X04875002Y08799376D02*
D03*
X06246002Y08797376D02*
D03*
X07102002Y08799376D02*
D03*
X08473002Y08797376D02*
D03*
X09329003Y08799376D02*
D03*
X10700003Y08797376D02*
D03*
D56*
X01792001Y00117844D02*
D03*
X04019001D02*
D03*
X06246002D02*
D03*
X08473002D02*
D03*
X10700003D02*
D03*
X01792001Y02362688D02*
D03*
X04019001D02*
D03*
X06246002D02*
D03*
X08473002D02*
D03*
X10700003D02*
D03*
X01792001Y04607532D02*
D03*
X04019001D02*
D03*
X06246002D02*
D03*
X08473002D02*
D03*
X10700003D02*
D03*
X01792001Y06852376D02*
D03*
X04019001D02*
D03*
X06246002D02*
D03*
X08473002D02*
D03*
X10700003D02*
D03*
D57*
X01792001Y01909844D02*
D03*
X00421D02*
D03*
X04019001D02*
D03*
X02648001D02*
D03*
X06246002D02*
D03*
X04875002D02*
D03*
X08473002D02*
D03*
X07102002D02*
D03*
X10700003D02*
D03*
X09329003D02*
D03*
X01792001Y04154688D02*
D03*
X00421D02*
D03*
X04019001D02*
D03*
X02648001D02*
D03*
X06246002D02*
D03*
X04875002D02*
D03*
X08473002D02*
D03*
X07102002D02*
D03*
X10700003D02*
D03*
X09329003D02*
D03*
X01792001Y06399532D02*
D03*
X00421D02*
D03*
X04019001D02*
D03*
X02648001D02*
D03*
X06246002D02*
D03*
X04875002D02*
D03*
X08473002D02*
D03*
X07102002D02*
D03*
X10700003D02*
D03*
X09329003D02*
D03*
X01792001Y08644376D02*
D03*
X00421D02*
D03*
X04019001D02*
D03*
X02648001D02*
D03*
X06246002D02*
D03*
X04875002D02*
D03*
X08473002D02*
D03*
X07102002D02*
D03*
X10700003D02*
D03*
X09329003D02*
D03*
M02*
